if (_typeface_js && _typeface_js.loadFace) _typeface_js.loadFace({"glyphs":{"S":{"x_min":104.96875,"x_max":1065.359375,"ha":994,"o":"m 568 641 b 476 733 497 647 458 650 b 654 822 488 791 507 822 b 783 715 763 822 806 822 l 1044 715 l 1054 758 b 701 1050 1114 1045 924 1050 b 203 731 435 1050 266 1030 b 537 416 141 433 289 434 l 595 412 b 718 315 722 404 737 405 b 529 219 700 227 656 219 b 382 338 395 219 359 230 l 120 338 b 481 -8 50 -2 221 -8 b 994 333 930 -8 958 161 b 680 633 1044 572 977 611 l 568 641 "},"¦":{"x_min":383.828125,"x_max":555.328125,"ha":735,"o":"m 383 1069 l 383 515 l 555 515 l 555 1069 l 383 1069 m 383 276 l 383 -276 l 555 -276 l 555 276 l 383 276 "},"/":{"x_min":8,"x_max":1044,"ha":885,"o":"m 1044 1041 l 857 1041 l 8 -156 l 194 -156 l 1044 1041 "},"y":{"x_min":101,"x_max":888,"ha":740,"o":"m 888 729 l 648 729 l 408 136 l 406 136 l 388 729 l 143 729 l 203 0 l 331 0 b 175 -156 309 -83 273 -156 b 135 -154 162 -156 148 -155 l 101 -319 b 179 -323 128 -320 152 -323 b 542 -63 378 -323 463 -255 l 888 729 "},"≈":{"x_min":196,"x_max":996.328125,"ha":1076,"o":"m 914 692 b 759 580 867 622 820 580 b 617 637 709 580 680 600 b 446 692 573 664 522 692 b 196 535 345 692 246 621 l 277 450 b 441 560 322 508 370 560 b 579 511 495 560 536 535 b 764 449 650 471 695 449 b 996 607 849 449 931 504 l 914 692 m 914 390 b 758 280 862 319 822 280 b 616 337 700 280 664 311 b 447 392 573 362 522 392 b 196 235 347 392 246 319 l 277 150 b 442 260 322 208 368 260 b 579 210 494 260 533 237 b 763 149 646 172 694 149 b 996 305 852 149 932 205 l 914 390 "},"Ž":{"x_min":31,"x_max":1082,"ha":915,"o":"m 1082 1041 l 278 1041 l 228 800 l 679 800 l 677 791 l 80 234 l 31 0 l 865 0 l 915 241 l 427 241 l 428 250 l 1034 808 l 1082 1041 m 681 1131 l 962 1283 l 945 1362 l 711 1276 l 523 1362 l 469 1283 l 681 1131 "},"Á":{"x_min":-16,"x_max":1014,"ha":1018,"o":"m 720 179 l 736 0 l 1014 0 l 920 1041 l 506 1041 l -16 0 l 267 0 l 354 179 l 720 179 m 707 381 l 454 381 l 673 833 l 676 833 l 707 381 m 888 1362 l 575 1195 l 596 1109 l 924 1208 l 888 1362 "},"g":{"x_min":52.609375,"x_max":912.359375,"ha":854,"o":"m 440 183 b 358 363 339 183 327 213 b 517 554 392 531 409 554 b 602 363 615 554 636 529 b 440 183 576 238 554 183 m 63 -65 b 343 -323 23 -295 90 -323 b 766 31 618 -323 709 -240 l 912 729 l 678 729 l 659 600 l 651 600 b 477 737 645 712 577 737 b 124 363 230 737 173 600 b 323 0 81 156 70 0 b 448 26 368 0 410 6 b 542 119 485 44 517 75 l 550 119 l 519 -31 b 372 -150 498 -133 473 -150 b 302 -138 345 -150 319 -148 b 285 -65 283 -127 276 -105 l 63 -65 "},"²":{"x_min":114.1875,"x_max":735.625,"ha":600,"o":"m 665 550 l 310 550 b 502 650 327 633 360 616 b 728 852 649 686 698 712 b 507 1050 764 1029 664 1050 b 204 847 338 1050 239 1016 l 197 816 l 365 816 l 372 847 b 480 919 386 913 400 919 b 557 850 551 920 571 912 b 420 762 545 786 536 787 b 141 550 209 718 171 694 l 114 419 l 638 419 l 665 550 "},"–":{"x_min":56,"x_max":784.203125,"ha":694,"o":"m 103 497 l 56 269 l 736 269 l 784 497 l 103 497 "},"ë":{"x_min":95.296875,"x_max":836.71875,"ha":797,"o":"m 369 455 b 504 570 391 551 421 570 b 600 455 584 570 622 563 l 369 455 m 559 243 b 422 158 544 166 495 158 b 342 323 325 158 315 195 l 807 323 l 815 363 b 544 737 876 661 812 737 b 116 363 256 737 175 644 b 388 -8 59 91 107 -8 b 649 34 492 -8 580 0 b 789 243 718 70 766 133 l 559 243 m 528 988 l 379 988 l 349 845 l 498 845 l 528 988 m 813 988 l 665 988 l 635 845 l 784 845 l 813 988 "},"ƒ":{"x_min":37,"x_max":1095,"ha":1000,"o":"m 953 679 l 814 679 l 841 752 b 973 875 881 859 907 875 b 1026 868 991 875 1009 872 l 1095 1050 b 599 761 775 1050 712 1050 l 568 679 l 465 679 l 399 504 l 502 504 l 299 -29 b 173 -148 272 -95 252 -148 b 105 -141 150 -148 128 -144 l 37 -323 b 540 -37 408 -323 435 -316 l 747 504 l 886 504 l 953 679 "},"Î":{"x_min":84,"x_max":718.0625,"ha":450,"o":"m 572 1041 l 300 1041 l 84 0 l 356 0 l 572 1041 m 501 1362 l 225 1211 l 245 1131 l 470 1218 l 667 1131 l 718 1211 l 501 1362 "},"e":{"x_min":95.296875,"x_max":837.015625,"ha":797,"o":"m 369 455 b 504 570 391 551 421 570 b 600 455 584 570 622 563 l 369 455 m 559 243 b 422 158 544 166 495 158 b 342 323 325 158 315 195 l 807 323 l 815 363 b 544 737 876 661 812 737 b 116 363 256 737 175 644 b 388 -8 59 91 107 -8 b 649 34 492 -8 581 0 b 789 243 718 70 766 133 l 559 243 "},"Ã":{"x_min":-16,"x_max":1060.984375,"ha":1018,"o":"m 720 179 l 736 0 l 1014 0 l 920 1041 l 506 1041 l -16 0 l 267 0 l 354 179 l 720 179 m 708 381 l 455 381 l 674 833 l 677 833 l 708 381 m 961 1330 b 877 1266 941 1300 912 1266 b 780 1314 843 1266 813 1289 b 664 1361 749 1338 713 1361 b 459 1228 581 1361 512 1296 l 558 1168 b 652 1230 583 1201 611 1230 b 739 1183 682 1230 708 1206 b 864 1136 770 1159 810 1136 b 1060 1273 947 1136 1011 1204 l 961 1330 "},"J":{"x_min":79.9375,"x_max":955.953125,"ha":836,"o":"m 683 1041 l 534 320 b 421 233 520 255 505 233 b 362 350 347 233 343 263 l 380 436 l 121 436 l 103 350 b 370 -8 42 59 87 -8 b 806 320 656 -8 747 41 l 955 1041 l 683 1041 "},"»":{"x_min":82.0625,"x_max":767,"ha":772,"o":"m 521 51 l 767 388 l 651 715 l 486 623 l 569 388 l 385 135 l 521 51 m 218 51 l 463 388 l 347 715 l 182 623 l 265 388 l 82 135 l 218 51 "},"∆":{"x_min":38,"x_max":1116,"ha":1156,"o":"m 38 0 l 1091 0 l 1116 119 l 926 1043 l 645 1043 l 62 119 l 38 0 m 325 176 l 608 637 b 729 852 646 706 704 806 l 736 852 b 773 618 741 790 762 686 l 862 176 l 325 176 "},"©":{"x_min":123.640625,"x_max":1184.4375,"ha":1111,"o":"m 543 -8 b 1172 520 829 -8 1111 227 b 764 1050 1233 813 1050 1050 b 135 520 477 1050 196 813 b 543 -8 74 227 256 -8 m 568 112 b 253 520 344 112 205 294 b 738 929 299 747 515 929 b 1054 520 957 929 1100 747 b 568 112 1006 294 787 112 m 786 420 b 631 305 768 352 696 305 b 496 527 516 305 474 423 b 718 745 519 638 601 745 b 830 636 786 745 833 704 l 952 636 b 739 845 958 768 871 845 b 376 525 554 845 415 709 b 609 205 339 345 426 205 b 907 420 737 205 864 286 l 786 420 "},"˘":{"x_min":313.21875,"x_max":798.96875,"ha":703,"o":"m 314 1018 b 510 795 302 891 383 795 b 798 1018 641 795 756 887 l 671 1018 b 534 913 645 952 602 913 b 442 1018 466 913 441 954 l 314 1018 "},"≥":{"x_min":284.46875,"x_max":1038.53125,"ha":1139,"o":"m 288 987 l 288 841 l 901 580 l 901 577 l 289 315 l 289 170 l 1038 508 l 1038 647 l 288 987 m 1033 -16 l 1033 115 l 284 115 l 284 -16 l 1033 -16 "},"ò":{"x_min":99.21875,"x_max":862.609375,"ha":824,"o":"m 556 737 b 122 363 258 737 183 662 b 401 -8 61 72 109 -8 b 837 363 698 -8 774 63 b 556 737 901 672 856 737 m 522 554 b 603 363 631 554 635 522 b 443 175 569 205 552 175 b 356 363 330 175 322 205 b 522 554 389 522 409 554 m 518 1050 l 418 895 l 705 797 l 761 883 l 518 1050 "},"^":{"x_min":140.4375,"x_max":821,"ha":833,"o":"m 317 347 l 577 816 l 580 816 l 644 347 l 821 347 l 706 1041 l 543 1041 l 140 347 l 317 347 "},"«":{"x_min":142,"x_max":825.03125,"ha":772,"o":"m 385 715 l 142 377 l 256 51 l 420 142 l 339 377 l 521 630 l 385 715 m 688 715 l 445 377 l 559 51 l 724 142 l 642 377 l 825 630 l 688 715 "},"D":{"x_min":70.578125,"x_max":1149.109375,"ha":1076,"o":"m 70 0 l 624 0 b 1085 419 909 0 1027 134 l 1132 637 b 804 1041 1193 933 1088 1041 l 287 1041 l 70 0 m 508 800 l 747 800 b 851 637 842 800 879 772 l 805 419 b 631 241 782 309 732 241 l 393 241 l 508 800 "},"∙":{"x_min":189,"x_max":460,"ha":500,"o":"m 460 504 l 239 504 l 189 262 l 409 262 l 460 504 "},"ł":{"x_min":83,"x_max":593,"ha":433,"o":"m 457 607 l 565 677 l 593 809 l 484 739 l 546 1041 l 312 1041 l 220 594 l 108 523 l 83 395 l 193 465 l 96 0 l 330 0 l 457 607 "},"ÿ":{"x_min":101,"x_max":888,"ha":740,"o":"m 888 729 l 648 729 l 408 136 l 406 136 l 388 729 l 143 729 l 203 0 l 331 0 b 175 -156 309 -83 273 -156 b 135 -154 162 -156 148 -155 l 101 -319 b 179 -323 128 -320 152 -323 b 542 -63 378 -323 463 -255 l 888 729 m 499 988 l 351 988 l 321 845 l 470 845 l 499 988 m 785 988 l 637 988 l 607 845 l 755 845 l 785 988 "},"Ł":{"x_min":67,"x_max":847,"ha":828,"o":"m 497 618 l 699 763 l 739 956 l 536 809 l 584 1041 l 312 1041 l 224 620 l 107 537 l 67 340 l 184 425 l 95 0 l 796 0 l 847 241 l 418 241 l 497 618 "},"í":{"x_min":59,"x_max":535.0625,"ha":357,"o":"m 445 729 l 211 729 l 59 0 l 292 0 l 445 729 m 499 1050 l 186 883 l 207 797 l 535 895 l 499 1050 "},"ˆ":{"x_min":290,"x_max":782.71875,"ha":711,"o":"m 564 1050 l 290 898 l 309 819 l 535 905 l 731 819 l 782 898 l 564 1050 "},"w":{"x_min":130.671875,"x_max":1291.703125,"ha":1164,"o":"m 1291 729 l 1071 729 l 868 159 l 858 159 l 860 729 l 586 729 l 348 159 l 337 159 l 378 729 l 153 729 l 130 0 l 470 0 l 676 519 l 684 519 l 677 0 l 1014 0 l 1291 729 "},"$":{"x_min":87.046875,"x_max":1080.0625,"ha":1000,"o":"m 553 641 b 441 730 446 647 426 656 b 594 833 460 825 509 833 l 726 833 b 828 730 816 833 847 823 l 1066 730 b 771 1050 1126 1016 982 1037 l 794 1163 l 662 1163 l 639 1050 b 197 730 354 1050 251 995 b 508 427 152 519 184 450 l 639 418 b 768 315 764 406 785 391 b 595 208 747 208 695 208 l 463 208 b 347 343 361 208 320 213 l 103 343 b 417 -8 39 41 168 -8 l 390 -136 l 523 -136 l 550 -8 b 1016 325 833 -8 962 69 b 682 629 1073 598 923 609 l 553 641 "},"∫":{"x_min":234.109375,"x_max":830.28125,"ha":861,"o":"m 830 1245 b 728 1265 811 1254 769 1265 b 530 1194 656 1265 579 1244 b 428 858 460 1125 428 1029 b 455 151 428 606 455 420 b 411 -66 455 26 441 -29 b 334 -97 392 -87 363 -97 b 261 -81 304 -97 277 -88 l 234 -233 b 368 -258 261 -247 319 -258 b 588 -138 453 -258 540 -225 b 646 148 622 -81 646 15 b 619 834 646 412 619 595 b 660 1070 619 954 628 1030 b 744 1112 677 1097 710 1112 b 807 1100 767 1112 790 1106 l 830 1245 "},"\\":{"x_min":259.359375,"x_max":797,"ha":889,"o":"m 610 -156 l 797 -156 l 445 1041 l 259 1041 l 610 -156 "},"Ì":{"x_min":84,"x_max":642.015625,"ha":450,"o":"m 572 1041 l 300 1041 l 84 0 l 356 0 l 572 1041 m 399 1362 l 299 1208 l 586 1109 l 642 1195 l 399 1362 "},"µ":{"x_min":8,"x_max":912,"ha":854,"o":"m 759 0 l 912 729 l 677 729 l 583 280 b 430 175 568 208 492 175 b 368 294 351 175 355 227 l 460 729 l 225 729 l 8 -315 l 242 -315 l 306 -8 b 558 140 413 -8 502 27 l 568 140 l 532 0 l 759 0 "},"Ç":{"x_min":111.234375,"x_max":1106.140625,"ha":1011,"o":"m 540 -56 l 343 -170 l 366 -243 l 577 -170 l 540 -56 m 747 394 l 741 363 b 547 233 715 241 660 233 b 422 448 384 233 390 293 l 456 611 b 667 808 486 759 512 808 b 811 708 759 808 821 801 l 802 668 l 1083 668 l 1091 708 b 747 1050 1151 1020 1027 1050 b 184 655 448 1050 256 1000 l 128 386 b 527 -8 49 5 249 -8 b 865 68 645 -8 758 -9 b 1021 363 975 147 997 250 l 1027 394 l 747 394 "},"’":{"x_min":191,"x_max":513.765625,"ha":367,"o":"m 293 1041 l 245 808 l 330 808 b 211 715 315 738 290 716 l 191 611 b 466 808 376 609 440 665 l 513 1041 l 293 1041 "},"-":{"x_min":56,"x_max":473.859375,"ha":378,"o":"m 103 497 l 56 269 l 426 269 l 473 497 l 103 497 "},"Q":{"x_min":135.421875,"x_max":1164.171875,"ha":1106,"o":"m 698 525 l 559 369 l 714 249 b 590 233 676 235 635 233 b 431 401 455 233 398 242 l 470 589 b 709 808 509 774 538 808 b 857 589 880 808 895 774 l 821 419 l 698 525 m 994 -1 l 1138 153 l 1042 230 b 1093 369 1063 265 1079 304 l 1146 630 b 760 1050 1218 972 1071 1050 b 198 630 450 1050 270 972 l 153 411 b 540 -7 81 62 224 -7 b 910 80 651 -7 797 -3 l 994 -1 "},"M":{"x_min":83,"x_max":1563,"ha":1457,"o":"m 494 798 l 502 798 l 597 0 l 833 0 l 1258 798 l 1267 798 l 1074 0 l 1346 0 l 1563 1041 l 1120 1041 l 799 387 l 789 387 l 731 1041 l 299 1041 l 83 0 l 355 0 l 494 798 "},"C":{"x_min":111.296875,"x_max":1106.140625,"ha":1011,"o":"m 747 394 l 741 363 b 547 233 715 241 660 233 b 422 448 384 233 390 293 l 456 611 b 667 808 486 759 512 808 b 811 708 759 808 821 801 l 802 668 l 1083 668 l 1091 708 b 747 1050 1151 1020 1027 1050 b 184 655 448 1050 256 1000 l 128 386 b 527 -8 49 5 249 -8 b 865 68 645 -8 758 -9 b 1021 363 975 147 997 250 l 1027 394 l 747 394 "},"œ":{"x_min":94.6875,"x_max":1303.640625,"ha":1278,"o":"m 836 455 b 977 591 858 551 893 591 b 1067 455 1056 591 1088 563 l 836 455 m 583 363 b 430 175 552 213 536 175 b 354 363 335 175 318 194 b 508 554 386 525 400 554 b 583 363 620 554 616 525 m 532 737 b 120 363 241 737 177 643 b 377 -8 60 80 91 -8 b 643 98 507 -8 570 0 l 651 98 b 855 -8 661 -6 771 -8 b 1116 34 959 -8 1047 0 b 1256 243 1185 70 1233 133 l 1026 243 b 889 158 1011 166 962 158 b 809 323 792 158 782 195 l 1274 323 l 1282 363 b 1011 737 1343 661 1279 737 b 764 640 936 737 823 737 l 758 640 b 532 737 735 733 618 737 "},"!":{"x_min":128,"x_max":581,"ha":485,"o":"m 398 241 l 178 241 l 128 0 l 348 0 l 398 241 m 581 1041 l 327 1041 l 206 409 l 440 409 l 581 1041 "},"ç":{"x_min":95.65625,"x_max":836.546875,"ha":774,"o":"m 424 -56 l 227 -170 l 250 -243 l 461 -170 l 424 -56 m 556 291 b 420 175 537 201 526 175 b 352 363 332 175 317 193 b 499 554 386 530 416 554 b 588 533 548 554 574 548 b 590 455 600 518 600 494 l 824 455 b 537 737 878 715 743 737 b 118 363 245 737 170 611 b 382 -8 58 76 106 -8 b 658 40 509 -8 596 -1 b 790 291 722 80 762 155 l 556 291 "},"È":{"x_min":87,"x_max":1040,"ha":942,"o":"m 529 813 l 993 813 l 1040 1041 l 303 1041 l 87 0 l 833 0 l 880 227 l 406 227 l 449 430 l 884 430 l 924 623 l 488 623 l 529 813 m 641 1362 l 540 1208 l 827 1109 l 883 1195 l 641 1362 "},"ﬁ":{"x_min":121,"x_max":1044,"ha":904,"o":"m 980 729 l 745 729 l 593 0 l 827 0 l 980 729 m 1044 1041 l 809 1041 l 771 858 l 1005 858 l 1044 1041 m 721 1041 b 287 800 410 1044 327 991 l 273 729 l 179 729 l 142 554 l 236 554 l 121 0 l 355 0 l 470 554 l 630 554 l 666 729 l 507 729 l 513 755 b 642 866 532 847 538 866 b 684 859 657 866 671 863 l 721 1041 "},"{":{"x_min":102.3125,"x_max":710.671875,"ha":535,"o":"m 102 336 b 198 261 129 336 215 337 l 139 -23 b 254 -208 113 -151 205 -208 l 447 -208 l 486 -25 l 435 -25 b 388 45 373 -25 381 11 l 437 283 b 336 425 461 412 377 420 l 336 427 b 494 558 379 431 471 454 l 544 795 b 622 866 551 830 559 866 l 672 866 l 710 1050 l 517 1050 b 324 865 468 1050 351 993 l 265 580 b 140 519 252 519 167 519 l 102 336 "},"X":{"x_min":-22,"x_max":1214,"ha":1017,"o":"m 1214 1041 l 900 1041 l 636 659 l 532 1041 l 213 1041 l 395 536 l -22 0 l 297 0 l 582 401 l 702 0 l 1019 0 l 827 536 l 1214 1041 "},"ô":{"x_min":99.21875,"x_max":862.609375,"ha":824,"o":"m 556 737 b 122 363 258 737 183 662 b 401 -8 61 72 109 -8 b 837 363 698 -8 774 63 b 556 737 901 672 856 737 m 522 554 b 603 363 631 554 635 522 b 443 175 569 205 552 175 b 356 363 330 175 322 205 b 522 554 389 522 409 554 m 620 1050 l 345 898 l 364 819 l 591 905 l 787 819 l 838 898 l 620 1050 "},"¼":{"x_min":127,"x_max":1461,"ha":1500,"o":"m 1461 624 l 1199 624 l 877 300 l 840 123 l 1187 123 l 1161 0 l 1330 0 l 1356 123 l 1412 123 l 1436 244 l 1380 244 l 1461 624 m 1211 244 l 1003 244 l 1258 496 l 1264 496 l 1211 244 m 1293 1041 l 1130 1041 l 310 0 l 474 0 l 1293 1041 m 614 1041 l 407 1041 l 127 852 l 204 746 l 407 894 l 308 419 l 485 419 l 614 1041 "},"#":{"x_min":167,"x_max":1025,"ha":1000,"o":"m 600 1041 l 487 750 l 327 750 l 293 590 l 424 590 l 354 409 l 201 409 l 167 250 l 290 250 l 194 0 l 338 0 l 435 250 l 572 250 l 476 0 l 620 0 l 717 250 l 877 250 l 911 409 l 783 409 l 853 590 l 986 590 l 1020 750 l 911 750 l 1025 1041 l 882 1041 l 768 750 l 631 750 l 744 1041 l 600 1041 m 568 590 l 710 590 l 638 409 l 499 409 l 568 590 "},"Ê":{"x_min":87,"x_max":1040,"ha":942,"o":"m 529 813 l 993 813 l 1040 1041 l 303 1041 l 87 0 l 833 0 l 880 227 l 406 227 l 449 430 l 884 430 l 924 623 l 488 623 l 529 813 m 743 1362 l 466 1211 l 487 1131 l 711 1218 l 909 1131 l 959 1211 l 743 1362 "},")":{"x_min":33.8125,"x_max":608.15625,"ha":535,"o":"m 571 600 b 296 1050 629 895 665 1050 l 248 822 b 322 645 350 822 345 761 l 228 195 b 81 19 209 106 190 19 l 33 -208 b 495 233 387 -208 427 -88 l 571 600 "},"Å":{"x_min":-16,"x_max":1014,"ha":1018,"o":"m 720 179 l 736 0 l 1014 0 l 920 1041 l 506 1041 l -16 0 l 267 0 l 354 179 l 720 179 m 707 381 l 454 381 l 673 833 l 676 833 l 707 381 m 623 1234 b 728 1098 607 1159 654 1098 b 888 1234 800 1098 872 1159 b 785 1369 903 1309 857 1369 b 623 1234 711 1369 638 1309 m 694 1234 b 769 1297 701 1269 735 1297 b 818 1234 801 1297 824 1269 b 741 1170 811 1200 774 1170 b 694 1234 707 1170 687 1200 "},"ø":{"x_min":-3,"x_max":974,"ha":854,"o":"m 624 395 l 610 330 b 454 175 586 213 561 175 b 353 223 405 175 363 180 l 624 395 m 364 333 l 391 463 b 533 553 403 524 439 553 b 633 502 571 553 633 553 l 364 333 m -3 0 l 133 86 b 416 -8 182 -8 309 -8 b 859 404 738 -8 793 82 b 880 560 870 456 882 509 l 949 605 l 974 723 l 856 646 b 571 737 812 737 678 737 b 145 402 303 737 203 682 b 111 172 128 326 114 247 l 21 115 l -3 0 "},"â":{"x_min":91.328125,"x_max":862.625,"ha":846,"o":"m 454 301 b 568 234 530 301 580 295 b 421 145 552 158 519 145 b 335 225 386 145 319 145 b 454 301 350 291 396 301 m 519 0 l 753 0 l 848 455 b 567 737 900 706 806 737 b 334 709 484 737 401 737 b 190 512 266 681 214 626 l 424 512 b 537 591 437 577 478 591 b 620 480 639 591 633 548 l 595 365 l 584 365 b 406 447 576 448 473 447 b 100 218 237 447 136 393 b 312 -8 62 31 149 -8 b 542 108 394 -8 503 8 l 550 108 l 519 0 m 631 1050 l 356 898 l 375 819 l 601 905 l 797 819 l 848 898 l 631 1050 "},"}":{"x_min":-10.671875,"x_max":599.046875,"ha":535,"o":"m 599 519 b 501 580 571 519 487 519 l 559 865 b 445 1050 586 993 494 1050 l 252 1050 l 213 866 l 264 866 b 311 795 326 866 318 830 l 261 558 b 364 427 243 454 324 431 l 364 425 b 204 283 321 420 234 412 l 155 45 b 77 -25 148 11 140 -25 l 27 -25 l -10 -208 l 182 -208 b 374 -23 231 -208 348 -151 l 434 261 b 560 336 450 337 533 336 l 599 519 "},"‰":{"x_min":170.34375,"x_max":1803.078125,"ha":1792,"o":"m 1794 333 b 1608 520 1827 500 1767 520 b 1352 331 1450 520 1390 498 l 1319 179 b 1499 -8 1289 12 1339 -8 b 1763 180 1657 -8 1725 13 l 1794 333 m 1631 201 b 1522 112 1612 113 1590 112 b 1461 201 1455 112 1442 113 l 1484 316 b 1582 400 1501 398 1515 400 b 1654 316 1655 400 1671 398 l 1631 201 m 1272 333 b 1086 520 1305 500 1245 520 b 830 331 928 520 868 498 l 797 179 b 977 -8 767 12 817 -8 b 1241 180 1135 -8 1203 13 l 1272 333 m 1109 201 b 1000 112 1090 113 1068 112 b 939 201 933 112 920 113 l 962 316 b 1060 400 979 398 993 400 b 1132 316 1133 400 1149 398 l 1109 201 m 653 862 b 467 1050 686 1029 626 1050 b 211 861 309 1050 249 1027 l 178 708 b 358 520 148 541 198 520 b 622 709 516 520 584 543 l 653 862 m 490 730 b 381 641 471 643 449 641 b 320 730 314 641 301 643 l 343 845 b 441 929 360 927 374 929 b 513 845 514 929 530 927 l 490 730 m 1226 1041 l 1062 1041 l 243 0 l 407 0 l 1226 1041 "},"Ä":{"x_min":-16,"x_max":1014,"ha":1018,"o":"m 720 179 l 736 0 l 1014 0 l 920 1041 l 506 1041 l -16 0 l 267 0 l 354 179 l 720 179 m 707 381 l 454 381 l 673 833 l 676 833 l 707 381 m 701 1301 l 552 1301 l 522 1158 l 671 1158 l 701 1301 m 986 1301 l 838 1301 l 808 1158 l 956 1158 l 986 1301 "},"¸":{"x_min":67,"x_max":301.109375,"ha":447,"o":"m 264 -57 l 67 -170 l 90 -243 l 301 -170 l 264 -57 "},"a":{"x_min":91.328125,"x_max":862.625,"ha":846,"o":"m 454 301 b 568 234 530 301 580 295 b 421 145 552 158 519 145 b 335 225 386 145 319 145 b 454 301 350 291 396 301 m 519 0 l 753 0 l 848 455 b 567 737 900 706 806 737 b 334 709 484 737 401 737 b 190 512 266 681 214 626 l 424 512 b 537 591 437 577 478 591 b 620 480 639 591 633 548 l 595 365 l 584 365 b 406 447 576 448 473 447 b 100 218 237 447 136 393 b 312 -8 62 31 149 -8 b 542 108 394 -8 503 8 l 550 108 l 519 0 "},"—":{"x_min":56,"x_max":1464.75,"ha":1389,"o":"m 103 497 l 56 269 l 1417 269 l 1464 497 l 103 497 "},"=":{"x_min":98,"x_max":877.921875,"ha":833,"o":"m 197 623 l 164 463 l 845 463 l 877 623 l 197 623 m 132 304 l 98 144 l 778 144 l 812 304 l 132 304 "},"N":{"x_min":83,"x_max":1319,"ha":1210,"o":"m 504 800 l 515 800 l 638 0 l 1102 0 l 1319 1041 l 1046 1041 l 897 241 l 886 241 l 759 1041 l 299 1041 l 83 0 l 355 0 l 504 800 "},"˚":{"x_min":291,"x_max":562.453125,"ha":479,"o":"m 293 922 b 398 786 278 847 325 786 b 559 922 470 786 544 847 b 455 1056 575 997 527 1056 b 293 922 382 1056 310 997 m 364 922 b 439 984 371 956 405 984 b 488 922 472 984 495 956 b 412 858 481 887 444 858 b 364 922 378 858 357 887 "},"ú":{"x_min":108.734375,"x_max":907.859375,"ha":854,"o":"m 755 0 l 907 729 l 673 729 l 579 280 b 426 175 564 208 488 175 b 364 294 347 175 351 227 l 455 729 l 221 729 l 117 230 b 310 -8 80 52 168 -8 b 553 140 409 -8 498 27 l 564 140 l 528 0 l 755 0 m 743 1050 l 430 883 l 450 797 l 778 895 l 743 1050 "},"⁄":{"x_min":-235,"x_max":748,"ha":303,"o":"m 748 1041 l 584 1041 l -235 0 l -71 0 l 748 1041 "},"2":{"x_min":84.03125,"x_max":1052.5,"ha":1000,"o":"m 934 216 l 387 216 b 688 384 417 356 469 327 b 1039 722 914 444 990 488 b 706 1050 1099 1015 945 1050 b 232 712 446 1050 290 995 l 221 661 l 480 661 l 491 712 b 661 833 515 823 537 833 b 779 718 770 834 801 822 b 563 572 757 611 745 613 b 128 216 237 498 179 458 l 84 0 l 889 0 l 934 216 "},"ü":{"x_min":108.734375,"x_max":907.859375,"ha":854,"o":"m 755 0 l 907 729 l 673 729 l 579 280 b 426 175 564 208 488 175 b 364 294 347 175 351 227 l 455 729 l 221 729 l 117 230 b 310 -8 80 52 168 -8 b 553 140 409 -8 498 27 l 564 140 l 528 0 l 755 0 m 555 988 l 406 988 l 377 845 l 525 845 l 555 988 m 841 988 l 692 988 l 662 845 l 811 845 l 841 988 "},"¯":{"x_min":279,"x_max":733.609375,"ha":644,"o":"m 306 980 l 279 850 l 706 850 l 733 980 l 306 980 "},"Z":{"x_min":31,"x_max":1082,"ha":915,"o":"m 1082 1041 l 278 1041 l 228 800 l 679 800 l 677 791 l 80 234 l 31 0 l 865 0 l 915 241 l 427 241 l 428 250 l 1034 808 l 1082 1041 "},"u":{"x_min":108.734375,"x_max":907.859375,"ha":854,"o":"m 755 0 l 907 729 l 673 729 l 579 280 b 426 175 564 208 488 175 b 364 294 347 175 351 227 l 455 729 l 221 729 l 117 230 b 310 -8 80 52 168 -8 b 553 140 409 -8 498 27 l 564 140 l 528 0 l 755 0 "},"˜":{"x_min":293,"x_max":894.609375,"ha":813,"o":"m 795 1018 b 710 954 774 988 746 954 b 614 1002 676 954 648 977 b 498 1049 582 1026 547 1049 b 293 916 415 1049 346 984 l 392 856 b 486 918 416 889 445 918 b 573 871 516 918 542 894 b 698 824 606 847 644 824 b 894 961 781 824 845 892 l 795 1018 "},"Ó":{"x_min":109.109375,"x_max":1142.484375,"ha":1056,"o":"m 516 -8 b 1067 373 792 -8 1000 52 l 1128 668 b 736 1050 1195 988 1013 1050 b 184 668 460 1050 250 988 l 122 373 b 516 -8 56 52 239 -8 m 566 233 b 410 404 425 233 381 248 l 459 638 b 686 808 494 793 544 808 b 842 638 827 808 874 793 l 793 404 b 566 233 761 248 708 233 m 906 1362 l 593 1195 l 614 1109 l 942 1208 l 906 1362 "},"k":{"x_min":75,"x_max":901,"ha":822,"o":"m 525 1041 l 291 1041 l 75 0 l 309 0 l 370 295 l 411 295 l 521 0 l 794 0 l 626 379 l 901 729 l 643 729 l 445 455 l 404 455 l 525 1041 "},"ˇ":{"x_min":305.28125,"x_max":798,"ha":711,"o":"m 516 819 l 798 970 l 780 1050 l 547 963 l 358 1050 l 305 970 l 516 819 "},"Ù":{"x_min":137.609375,"x_max":1181.390625,"ha":1071,"o":"m 909 1041 l 768 365 b 586 233 743 243 702 233 b 431 352 472 233 406 234 l 574 1041 l 302 1041 l 157 347 b 536 -8 106 97 127 -8 b 1037 347 835 -8 979 69 l 1181 1041 l 909 1041 m 705 1362 l 604 1208 l 891 1109 l 947 1195 l 705 1362 "},"Ÿ":{"x_min":195,"x_max":1202,"ha":983,"o":"m 1202 1041 l 886 1041 l 615 640 l 605 640 l 506 1041 l 195 1041 l 416 365 l 340 0 l 612 0 l 688 365 l 1202 1041 m 684 1301 l 536 1301 l 506 1158 l 654 1158 l 684 1301 m 970 1301 l 822 1301 l 792 1158 l 940 1158 l 970 1301 "},"€":{"x_min":84.328125,"x_max":1167.828125,"ha":1000,"o":"m 1167 951 b 854 1050 1082 1054 917 1050 b 299 698 594 1050 377 1002 l 209 698 l 122 556 l 268 556 l 257 500 l 171 500 l 84 358 l 227 358 b 634 -8 161 6 362 -8 b 905 59 714 -8 833 16 l 958 315 b 679 219 910 276 822 219 b 490 358 521 219 481 259 l 808 358 l 895 500 l 515 500 l 526 556 l 926 556 l 1012 698 l 560 698 b 804 820 592 784 654 820 b 1034 731 886 820 981 818 l 1167 951 "},"¢":{"x_min":221.734375,"x_max":951.796875,"ha":1000,"o":"m 535 -15 l 561 109 b 903 416 806 109 857 198 l 686 416 b 547 293 668 325 637 293 b 484 497 448 293 446 311 b 627 679 516 650 536 679 b 720 579 715 679 728 641 l 937 579 b 717 862 983 788 919 862 l 739 966 l 635 966 l 614 862 b 246 497 358 862 295 733 b 457 109 193 240 207 109 l 432 -15 l 535 -15 "},"Ω":{"x_min":66.421875,"x_max":1297.75,"ha":1285,"o":"m 340 175 l 103 175 l 66 0 l 553 0 l 580 133 b 433 523 466 195 394 336 b 812 862 476 723 635 862 b 1043 530 1000 862 1080 704 b 732 133 1000 319 873 206 l 704 0 l 1190 0 l 1227 175 l 985 175 l 985 179 b 1288 572 1120 258 1247 381 b 847 1036 1337 812 1185 1036 b 205 569 521 1036 258 826 b 340 179 165 379 251 248 l 340 175 "},"ß":{"x_min":77.359375,"x_max":931.078125,"ha":857,"o":"m 311 0 l 474 784 b 601 890 492 869 533 890 b 702 801 674 890 715 872 b 589 729 688 737 642 729 l 563 729 l 529 569 l 551 569 b 629 340 674 569 657 468 b 481 158 600 194 574 158 b 421 168 459 158 440 161 l 386 0 b 507 -8 427 -2 466 -8 b 864 340 744 -8 819 125 b 721 638 896 497 904 636 l 722 650 b 924 830 827 662 902 722 b 635 1050 967 1040 801 1050 b 240 784 428 1050 286 1005 l 77 0 l 311 0 "},"é":{"x_min":95.296875,"x_max":837.015625,"ha":797,"o":"m 369 455 b 504 570 391 551 421 570 b 600 455 584 570 622 563 l 369 455 m 559 243 b 422 158 544 166 495 158 b 342 323 325 158 315 195 l 807 323 l 815 363 b 544 737 876 661 812 737 b 116 363 256 737 175 644 b 388 -8 59 91 107 -8 b 649 34 492 -8 581 0 b 789 243 718 70 766 133 l 559 243 m 714 1050 l 401 883 l 421 797 l 750 895 l 714 1050 "},"s":{"x_min":82.375,"x_max":830.375,"ha":803,"o":"m 818 522 l 825 556 b 547 737 863 736 678 737 b 147 498 348 737 196 733 b 452 281 117 350 155 281 b 559 209 533 281 574 281 b 423 145 547 152 529 145 b 345 155 394 145 366 145 b 325 227 326 166 317 187 l 91 227 b 392 -8 41 -12 207 -8 b 792 237 580 -8 748 23 b 490 461 835 441 731 455 b 380 525 370 463 373 488 b 514 583 389 568 392 583 b 572 576 533 583 555 583 b 597 522 588 568 600 552 l 818 522 "},"B":{"x_min":81.546875,"x_max":1112.8125,"ha":1025,"o":"m 81 0 l 623 0 b 1016 290 839 0 963 34 b 888 523 1043 420 1038 513 l 891 534 b 1102 775 1030 556 1073 643 b 834 1041 1148 1002 1037 1041 l 297 1041 l 81 0 m 523 813 l 752 813 b 819 725 827 811 833 787 b 680 625 801 641 775 625 l 484 625 l 523 813 m 443 431 l 654 431 b 753 333 743 431 771 419 b 606 227 736 248 695 227 l 401 227 l 443 431 "},"…":{"x_min":116,"x_max":1296,"ha":1389,"o":"m 387 241 l 166 241 l 116 0 l 336 0 l 387 241 m 841 241 l 620 241 l 570 0 l 790 0 l 841 241 m 1296 241 l 1075 241 l 1025 0 l 1245 0 l 1296 241 "},"?":{"x_min":216,"x_max":935.5625,"ha":840,"o":"m 567 368 l 576 409 b 667 495 584 451 605 470 b 925 781 825 561 887 601 b 637 1050 974 1018 846 1050 b 225 781 420 1050 278 1019 l 216 738 l 450 738 l 459 781 b 599 866 475 859 530 866 b 691 781 673 866 705 855 b 583 663 674 705 635 687 l 529 640 b 342 409 390 576 368 538 l 333 368 l 567 368 m 534 241 l 314 241 l 263 0 l 484 0 l 534 241 "},"H":{"x_min":87,"x_max":1203,"ha":1094,"o":"m 1203 1041 l 930 1041 l 849 650 l 493 650 l 575 1041 l 303 1041 l 87 0 l 359 0 l 443 408 l 798 408 l 714 0 l 986 0 l 1203 1041 "},"î":{"x_min":59,"x_max":610.0625,"ha":357,"o":"m 445 729 l 211 729 l 59 0 l 293 0 l 445 729 m 392 1050 l 117 898 l 136 819 l 362 905 l 558 819 l 610 898 l 392 1050 "},"c":{"x_min":95.65625,"x_max":836.546875,"ha":774,"o":"m 556 291 b 420 175 537 201 526 175 b 352 363 332 175 317 193 b 499 554 386 530 416 554 b 588 533 548 554 574 548 b 590 455 600 518 600 494 l 824 455 b 537 737 878 715 743 737 b 118 363 245 737 170 611 b 382 -8 58 76 106 -8 b 658 40 509 -8 596 -1 b 790 291 722 80 762 155 l 556 291 "},"¶":{"x_min":112.1875,"x_max":1186.890625,"ha":1000,"o":"m 905 -315 l 1186 1041 l 564 1041 b 137 656 311 1041 194 931 b 417 270 73 352 118 270 l 594 270 l 473 -315 l 637 -315 l 877 840 l 982 840 l 741 -315 l 905 -315 m 637 472 l 502 472 b 389 656 356 472 356 505 b 578 840 417 798 432 840 l 714 840 l 637 472 "},"−":{"x_min":132,"x_max":845,"ha":833,"o":"m 132 304 l 812 304 l 845 463 l 164 463 l 132 304 "},"≠":{"x_min":249.046875,"x_max":1005.953125,"ha":1104,"o":"m 846 773 l 741 821 l 662 642 l 249 642 l 249 513 l 608 513 l 518 313 l 249 313 l 249 184 l 462 184 l 401 49 l 504 1 l 586 184 l 1005 184 l 1005 313 l 642 313 l 732 513 l 1005 513 l 1005 642 l 788 642 l 846 773 "},"•":{"x_min":256.53125,"x_max":778.875,"ha":833,"o":"m 773 520 b 571 781 803 665 713 781 b 262 520 428 781 289 665 b 462 261 231 375 322 261 b 773 520 604 261 743 377 "},"¥":{"x_min":88,"x_max":1184,"ha":1000,"o":"m 987 775 l 1184 1041 l 884 1041 l 623 640 l 613 640 l 523 1041 l 228 1041 l 311 775 l 187 775 l 149 591 l 367 591 l 399 483 l 126 483 l 88 300 l 410 300 l 348 0 l 620 0 l 682 300 l 1016 300 l 1054 483 l 771 483 l 851 591 l 1077 591 l 1115 775 l 987 775 "},"(":{"x_min":89.765625,"x_max":666.125,"ha":535,"o":"m 127 233 b 403 -208 59 -88 49 -208 l 451 19 b 377 195 342 19 358 106 l 471 645 b 618 822 494 761 516 822 l 666 1050 b 203 600 297 1050 267 895 l 127 233 "},"U":{"x_min":137.609375,"x_max":1181.390625,"ha":1071,"o":"m 909 1041 l 768 365 b 586 233 743 243 702 233 b 431 352 472 233 406 234 l 574 1041 l 302 1041 l 157 347 b 536 -8 106 97 127 -8 b 1037 347 835 -8 979 69 l 1181 1041 l 909 1041 "},"◊":{"x_min":294,"x_max":1152,"ha":1251,"o":"m 1152 506 l 814 1088 l 633 1088 l 294 506 l 630 -73 l 811 -73 l 1152 506 m 946 502 l 754 156 b 727 94 744 141 732 109 l 721 94 b 694 158 716 109 705 136 l 496 511 l 688 854 b 718 919 699 875 712 901 l 721 919 b 751 854 727 901 740 873 l 946 502 "},"Ñ":{"x_min":83,"x_max":1319,"ha":1210,"o":"m 504 799 l 515 799 l 638 0 l 1102 0 l 1319 1041 l 1046 1041 l 897 241 l 886 241 l 759 1041 l 299 1041 l 83 0 l 355 0 l 504 799 m 1054 1330 b 970 1266 1034 1300 1005 1266 b 873 1314 936 1266 906 1289 b 758 1361 842 1338 807 1361 b 552 1228 675 1361 605 1296 l 652 1168 b 745 1230 676 1201 705 1230 b 833 1183 775 1230 801 1206 b 958 1136 864 1159 903 1136 b 1154 1273 1041 1136 1105 1204 l 1054 1330 "},"F":{"x_min":75,"x_max":1016,"ha":856,"o":"m 517 813 l 969 813 l 1016 1041 l 291 1041 l 75 0 l 347 0 l 426 381 l 843 381 l 890 609 l 474 609 l 517 813 "},"­":{"x_min":56,"x_max":473.859375,"ha":378,"o":"m 103 497 l 56 269 l 426 269 l 473 497 l 103 497 "},":":{"x_min":123,"x_max":496,"ha":500,"o":"m 393 241 l 173 241 l 123 0 l 343 0 l 393 241 m 496 729 l 275 729 l 225 487 l 445 487 l 496 729 "},"Û":{"x_min":137.609375,"x_max":1181.390625,"ha":1071,"o":"m 909 1041 l 768 365 b 586 233 743 243 702 233 b 431 352 472 233 406 234 l 574 1041 l 302 1041 l 157 347 b 536 -8 106 97 127 -8 b 1037 347 835 -8 979 69 l 1181 1041 l 909 1041 m 807 1362 l 530 1211 l 551 1131 l 775 1218 l 973 1131 l 1023 1211 l 807 1362 "},"*":{"x_min":377,"x_max":932,"ha":1000,"o":"m 932 783 l 919 916 l 730 854 l 768 1041 l 642 1041 l 604 854 l 445 916 l 377 794 l 536 730 l 398 580 l 485 504 l 632 658 l 706 502 l 821 580 l 751 729 l 932 783 "},"†":{"x_min":241,"x_max":1009,"ha":1000,"o":"m 823 1041 l 589 1041 l 526 737 l 279 737 l 241 554 l 488 554 l 307 -315 l 541 -315 l 723 554 l 970 554 l 1009 737 l 761 737 l 823 1041 "},"∕":{"x_min":-235,"x_max":748,"ha":303,"o":"m 748 1041 l 584 1041 l -235 0 l -71 0 l 748 1041 "},"°":{"x_min":238.359375,"x_max":655.78125,"ha":556,"o":"m 651 841 b 490 1050 674 955 602 1050 b 243 841 377 1050 264 955 b 403 633 218 726 290 633 b 651 841 515 633 626 726 m 557 841 b 424 729 543 779 484 729 b 337 841 362 729 323 779 b 469 954 347 902 409 954 b 557 841 530 954 569 902 "},"V":{"x_min":194.6875,"x_max":1206,"ha":988,"o":"m 533 238 l 525 238 l 471 1041 l 194 1041 l 266 0 l 691 0 l 1206 1041 l 924 1041 l 533 238 "},"å":{"x_min":91.328125,"x_max":862.390625,"ha":846,"o":"m 454 301 b 568 234 530 301 580 295 b 421 145 552 158 519 145 b 335 225 386 145 319 145 b 454 301 350 291 396 301 m 519 0 l 753 0 l 848 455 b 567 737 900 706 806 737 b 334 709 484 737 401 737 b 190 512 266 681 214 626 l 424 512 b 537 591 437 577 478 591 b 620 480 639 591 633 548 l 595 365 l 584 365 b 406 447 576 448 473 447 b 100 218 237 447 136 393 b 312 -8 62 31 149 -8 b 542 108 394 -8 503 8 l 550 108 l 519 0 m 473 922 b 577 786 458 847 504 786 b 738 922 650 786 723 847 b 635 1056 754 997 707 1056 b 473 922 561 1056 489 997 m 543 922 b 618 984 550 956 584 984 b 667 922 651 984 674 956 b 591 858 660 887 624 858 b 543 922 557 858 537 887 "}," ":{"x_min":0,"x_max":0,"ha":500},"0":{"x_min":124.71875,"x_max":1072.28125,"ha":1000,"o":"m 708 1050 b 207 684 493 1050 281 1036 l 139 356 b 488 -8 66 5 273 -8 b 989 356 703 -8 915 5 l 1057 684 b 708 1050 1130 1036 923 1050 m 661 820 b 789 640 795 820 825 818 l 738 401 b 535 220 701 223 670 220 b 406 401 401 220 369 223 l 456 640 b 661 820 493 818 526 820 "},"”":{"x_min":191,"x_max":819.953125,"ha":679,"o":"m 293 1041 l 245 808 l 329 808 b 211 715 314 738 290 716 l 191 611 b 466 808 376 609 440 665 l 513 1041 l 293 1041 m 599 1041 l 551 808 l 636 808 b 517 715 621 738 596 716 l 497 611 b 772 808 682 609 746 665 l 819 1041 l 599 1041 "},"¾":{"x_min":154.609375,"x_max":1510.1875,"ha":1500,"o":"m 1510 625 l 1248 625 l 926 301 l 889 123 l 1236 123 l 1210 0 l 1379 0 l 1405 123 l 1461 123 l 1485 244 l 1429 244 l 1510 625 m 1261 244 l 1052 244 l 1307 497 l 1314 497 l 1261 244 m 1370 1041 l 1206 1041 l 387 0 l 550 0 l 1370 1041 m 402 679 l 444 679 b 533 620 537 679 542 663 b 416 544 518 548 488 544 b 333 618 355 544 318 548 l 337 638 l 168 638 l 161 605 b 380 413 123 427 243 413 b 697 600 546 413 663 438 b 614 734 712 672 700 730 l 617 741 b 748 881 700 751 733 812 b 514 1050 780 1041 637 1050 b 220 856 360 1050 257 1034 l 216 834 l 384 834 l 387 847 b 495 919 401 918 431 919 b 572 851 584 919 583 901 b 469 800 564 808 554 800 l 427 800 l 402 679 "},"@":{"x_min":117.21875,"x_max":1151.453125,"ha":1056,"o":"m 498 487 b 662 637 513 559 585 637 b 745 519 729 637 760 587 b 575 365 729 440 660 365 b 498 487 508 365 484 422 m 824 703 b 673 785 795 760 743 785 b 329 465 504 785 363 629 b 507 219 300 328 387 219 b 651 284 553 219 611 245 l 653 281 b 718 213 641 235 673 213 b 1143 618 903 213 1098 408 b 760 1050 1195 866 989 1050 b 129 518 470 1050 191 816 b 548 -8 66 213 255 -8 b 999 209 717 -8 872 71 l 864 209 b 585 116 786 156 688 116 b 265 518 352 116 214 272 b 730 925 314 748 502 925 b 1022 572 939 925 1068 797 b 837 317 991 422 895 317 b 830 367 808 317 820 341 l 981 774 l 852 774 l 824 703 "},"ö":{"x_min":99.21875,"x_max":862.609375,"ha":824,"o":"m 556 737 b 122 363 258 737 183 662 b 401 -8 61 72 109 -8 b 837 363 698 -8 774 63 b 556 737 901 672 856 737 m 522 554 b 603 363 631 554 635 522 b 443 175 569 205 552 175 b 356 363 330 175 322 205 b 522 554 389 522 409 554 m 540 988 l 392 988 l 362 845 l 510 845 l 540 988 m 826 988 l 678 988 l 648 845 l 796 845 l 826 988 "},"i":{"x_min":59,"x_max":510,"ha":357,"o":"m 445 729 l 211 729 l 59 0 l 293 0 l 445 729 m 510 1041 l 275 1041 l 237 858 l 471 858 l 510 1041 "},"≤":{"x_min":283.109375,"x_max":1039.890625,"ha":1138,"o":"m 1037 170 l 1037 315 l 424 577 l 424 580 l 1035 841 l 1035 987 l 287 648 l 287 509 l 1037 170 m 1039 -16 l 1039 115 l 283 115 l 283 -16 l 1039 -16 "},"Õ":{"x_min":109.109375,"x_max":1142.484375,"ha":1056,"o":"m 516 -8 b 1067 373 792 -8 1000 52 l 1128 668 b 736 1049 1195 988 1013 1049 b 184 668 460 1049 250 988 l 122 373 b 516 -8 56 52 239 -8 m 566 233 b 410 404 425 233 381 248 l 459 638 b 686 808 494 793 544 808 b 842 638 827 808 874 793 l 793 404 b 566 233 761 248 708 233 m 980 1330 b 895 1266 959 1300 931 1266 b 799 1314 861 1266 831 1289 b 683 1361 767 1338 732 1361 b 478 1228 600 1361 531 1296 l 577 1168 b 671 1230 601 1201 630 1230 b 758 1183 701 1230 727 1206 b 883 1136 789 1159 829 1136 b 1079 1273 966 1136 1030 1204 l 980 1330 "},"þ":{"x_min":3.625,"x_max":891.34375,"ha":858,"o":"m 519 1041 l 285 1041 l 3 -315 l 237 -315 l 326 109 l 337 109 b 511 -8 353 9 425 -8 b 846 302 707 -8 799 80 l 881 469 b 666 737 921 662 839 737 b 531 712 616 737 569 731 b 439 616 493 694 462 665 l 431 616 l 519 1041 m 535 554 b 625 363 659 554 654 505 b 456 175 590 198 553 175 b 379 363 347 175 353 241 b 535 554 410 518 436 554 "},"]":{"x_min":34.140625,"x_max":666,"ha":535,"o":"m 403 -208 l 666 1050 l 296 1050 l 249 822 l 359 822 l 192 19 l 81 19 l 34 -208 l 403 -208 "},"m":{"x_min":79.0625,"x_max":1298.890625,"ha":1290,"o":"m 231 729 l 79 0 l 313 0 l 398 413 b 543 554 417 501 446 554 b 608 441 624 554 619 508 l 515 0 l 750 0 l 835 413 b 974 554 851 491 883 554 b 1040 422 1065 554 1051 498 l 952 0 l 1186 0 l 1289 498 b 1091 737 1325 668 1255 737 b 862 594 1001 737 896 698 l 852 594 b 665 737 865 719 766 737 b 446 626 585 737 492 712 l 437 626 l 458 729 l 231 729 "},"8":{"x_min":126.03125,"x_max":1060.015625,"ha":1000,"o":"m 577 429 b 713 322 718 429 733 419 b 531 208 694 230 683 208 b 400 318 413 208 381 227 b 577 429 420 416 451 429 m 489 -8 b 966 287 718 -8 909 12 b 845 527 992 411 974 509 l 846 537 b 1049 762 978 577 1019 622 b 709 1050 1105 1030 928 1050 b 255 775 509 1050 308 1029 b 372 537 227 643 254 569 l 371 527 b 135 287 240 522 160 406 b 489 -8 79 16 271 -8 m 621 630 b 505 729 522 630 487 640 b 664 833 524 822 553 833 b 786 738 797 833 801 811 b 621 630 766 641 737 630 "},"ž":{"x_min":29,"x_max":799,"ha":689,"o":"m 207 729 l 171 562 l 483 562 l 69 197 l 29 0 l 646 0 l 682 166 l 336 166 l 759 540 l 799 729 l 207 729 m 505 819 l 786 970 l 769 1050 l 536 963 l 347 1050 l 294 970 l 505 819 "},"R":{"x_min":77.421875,"x_max":1118.984375,"ha":1031,"o":"m 457 518 l 515 800 l 726 800 b 815 680 816 800 834 773 b 668 518 790 562 785 518 l 457 518 m 77 0 l 349 0 l 406 276 l 617 276 b 702 145 699 276 721 223 l 672 0 l 944 0 l 988 209 b 842 394 1012 327 954 390 l 844 405 b 1104 726 1047 451 1069 552 b 819 1041 1159 986 1054 1037 l 293 1041 l 77 0 "},"á":{"x_min":91.328125,"x_max":862.625,"ha":846,"o":"m 454 301 b 568 234 530 301 580 295 b 421 145 552 158 519 145 b 335 225 386 145 319 145 b 454 301 350 291 396 301 m 519 0 l 753 0 l 848 455 b 567 737 900 706 806 737 b 334 709 484 737 401 737 b 190 512 266 681 214 626 l 424 512 b 537 591 437 577 478 591 b 620 480 639 591 633 548 l 595 365 l 584 365 b 406 447 576 448 473 447 b 100 218 237 447 136 393 b 312 -8 62 31 149 -8 b 542 108 394 -8 503 8 l 550 108 l 519 0 m 738 1050 l 425 883 l 445 797 l 773 895 l 738 1050 "},"×":{"x_min":101,"x_max":875,"ha":833,"o":"m 194 608 l 368 383 l 101 158 l 196 35 l 462 260 l 636 35 l 781 158 l 608 383 l 875 608 l 781 729 l 513 505 l 340 729 l 194 608 "},"o":{"x_min":99.21875,"x_max":862.609375,"ha":824,"o":"m 556 737 b 122 363 258 737 183 662 b 401 -8 61 72 109 -8 b 837 363 698 -8 774 63 b 556 737 901 672 856 737 m 522 554 b 603 363 631 554 635 522 b 443 175 569 205 552 175 b 356 363 330 175 322 205 b 522 554 389 522 409 554 "},"5":{"x_min":141.625,"x_max":1067.4375,"ha":1000,"o":"m 151 302 b 476 -8 105 43 224 -8 b 969 374 772 -8 901 42 b 721 716 1019 616 969 716 b 480 639 592 716 563 713 l 523 839 l 1026 839 l 1067 1041 l 329 1041 l 208 457 l 442 457 b 584 507 468 507 497 507 b 705 345 736 507 732 478 b 521 207 676 210 640 207 b 410 302 445 207 397 214 l 151 302 "},"õ":{"x_min":99.21875,"x_max":900.015625,"ha":824,"o":"m 556 737 b 122 364 258 737 183 662 b 401 -7 61 72 109 -7 b 837 364 698 -7 774 64 b 556 737 901 672 856 737 m 522 554 b 603 364 631 554 635 522 b 443 175 569 206 552 175 b 356 364 330 175 322 206 b 522 554 389 522 409 554 m 800 1018 b 716 954 780 988 751 954 b 619 1002 682 954 653 977 b 503 1049 588 1026 552 1049 b 298 916 420 1049 351 984 l 397 856 b 491 918 422 889 450 918 b 578 871 521 918 547 894 b 704 824 611 847 649 824 b 900 961 787 824 851 892 l 800 1018 "},"7":{"x_min":225,"x_max":1066,"ha":1000,"o":"m 1066 1041 l 295 1041 l 248 808 l 739 808 l 225 0 l 510 0 l 1018 808 l 1066 1041 "},"K":{"x_min":87,"x_max":1249,"ha":1044,"o":"m 575 1041 l 303 1041 l 87 0 l 359 0 l 443 408 l 525 408 l 725 0 l 1062 0 l 783 530 l 1249 1041 l 919 1041 l 575 650 l 493 650 l 575 1041 "},",":{"x_min":75,"x_max":398.96875,"ha":500,"o":"m 178 233 l 129 0 l 213 0 b 96 -93 198 -69 174 -91 l 75 -197 b 349 0 261 -198 324 -143 l 398 233 l 178 233 "},"d":{"x_min":89.109375,"x_max":975.921875,"ha":850,"o":"m 975 1041 l 741 1041 l 656 625 l 645 625 b 469 737 626 719 555 737 b 133 426 273 737 179 648 l 99 259 b 314 -8 58 66 141 -8 b 450 18 366 -8 411 -1 b 545 126 488 37 521 72 l 556 126 l 525 0 l 759 0 l 975 1041 m 355 363 b 514 554 385 508 397 554 b 601 363 638 554 630 505 b 435 175 566 198 532 175 b 355 363 337 175 317 186 "},"¨":{"x_min":278,"x_max":742,"ha":651,"o":"m 456 988 l 307 988 l 278 845 l 426 845 l 456 988 m 742 988 l 593 988 l 563 845 l 712 845 l 742 988 "},"Ô":{"x_min":109.109375,"x_max":1142.484375,"ha":1056,"o":"m 516 -8 b 1067 373 792 -8 1000 52 l 1128 668 b 736 1050 1195 988 1013 1050 b 184 668 460 1050 250 988 l 122 373 b 516 -8 56 52 239 -8 m 566 233 b 410 404 425 233 381 248 l 459 638 b 686 808 494 793 544 808 b 842 638 827 808 874 793 l 793 404 b 566 233 761 248 708 233 m 799 1362 l 523 1211 l 543 1131 l 767 1218 l 965 1131 l 1015 1211 l 799 1362 "},"E":{"x_min":87,"x_max":1040,"ha":942,"o":"m 529 813 l 993 813 l 1040 1041 l 303 1041 l 87 0 l 833 0 l 880 227 l 406 227 l 449 430 l 884 430 l 924 623 l 488 623 l 529 813 "},"Y":{"x_min":195,"x_max":1202,"ha":983,"o":"m 1202 1041 l 886 1041 l 615 640 l 605 640 l 506 1041 l 195 1041 l 416 365 l 340 0 l 612 0 l 688 365 l 1202 1041 "},"\"":{"x_min":235,"x_max":761.890625,"ha":614,"o":"m 271 1041 l 235 861 l 254 681 l 327 681 l 422 861 l 459 1041 l 271 1041 m 574 1041 l 537 861 l 556 681 l 629 681 l 725 861 l 761 1041 l 574 1041 "},"‹":{"x_min":139,"x_max":518.9375,"ha":460,"o":"m 382 715 l 139 377 l 253 51 l 418 142 l 336 377 l 518 630 l 382 715 "},"˙":{"x_min":278,"x_max":456,"ha":360,"o":"m 456 988 l 307 988 l 278 845 l 426 845 l 456 988 "},"ê":{"x_min":95.296875,"x_max":837.015625,"ha":797,"o":"m 369 455 b 504 570 391 551 421 570 b 600 455 584 570 622 563 l 369 455 m 559 243 b 422 158 544 166 495 158 b 342 323 325 158 315 195 l 807 323 l 815 363 b 544 737 876 661 812 737 b 116 363 256 737 175 644 b 388 -8 59 91 107 -8 b 649 34 492 -8 581 0 b 789 243 718 70 766 133 l 559 243 m 607 1050 l 331 898 l 350 819 l 577 905 l 773 819 l 825 898 l 607 1050 "},"Ï":{"x_min":84,"x_max":709,"ha":450,"o":"m 572 1041 l 300 1041 l 84 0 l 356 0 l 572 1041 m 423 1301 l 274 1301 l 244 1158 l 393 1158 l 423 1301 m 709 1301 l 560 1301 l 530 1158 l 679 1158 l 709 1301 "},"„":{"x_min":19,"x_max":649.0625,"ha":679,"o":"m 122 233 l 73 0 l 157 0 b 40 -93 142 -69 118 -91 l 19 -197 b 293 0 205 -198 268 -143 l 342 233 l 122 233 m 428 233 l 379 0 l 463 0 b 346 -93 448 -69 424 -91 l 325 -197 b 600 0 511 -198 574 -143 l 649 233 l 428 233 "},"Â":{"x_min":-16,"x_max":1014,"ha":1018,"o":"m 720 179 l 736 0 l 1014 0 l 920 1041 l 506 1041 l -16 0 l 267 0 l 354 179 l 720 179 m 707 381 l 454 381 l 673 833 l 676 833 l 707 381 m 781 1362 l 505 1211 l 525 1131 l 750 1218 l 947 1131 l 997 1211 l 781 1362 "},"Í":{"x_min":84,"x_max":644.96875,"ha":450,"o":"m 572 1041 l 300 1041 l 84 0 l 356 0 l 572 1041 m 609 1362 l 296 1195 l 316 1109 l 644 1208 l 609 1362 "},"´":{"x_min":286,"x_max":634.4375,"ha":561,"o":"m 599 1050 l 286 883 l 306 797 l 634 895 l 599 1050 "},"ì":{"x_min":59,"x_max":532.9375,"ha":357,"o":"m 445 729 l 211 729 l 59 0 l 293 0 l 445 729 m 290 1050 l 189 895 l 477 797 l 532 883 l 290 1050 "},"±":{"x_min":68,"x_max":867,"ha":833,"o":"m 481 729 l 447 565 l 186 565 l 152 405 l 413 405 l 378 234 l 534 234 l 570 405 l 832 405 l 867 565 l 604 565 l 638 729 l 481 729 m 68 0 l 748 0 l 781 159 l 100 159 l 68 0 "},"Ú":{"x_min":137.609375,"x_max":1181.390625,"ha":1071,"o":"m 909 1041 l 768 365 b 586 233 743 243 702 233 b 431 352 472 233 406 234 l 574 1041 l 302 1041 l 157 347 b 536 -8 106 97 127 -8 b 1037 347 835 -8 979 69 l 1181 1041 l 909 1041 m 914 1362 l 601 1195 l 621 1109 l 950 1208 l 914 1362 "},"|":{"x_min":383.828125,"x_max":555.328125,"ha":735,"o":"m 383 1188 l 383 -395 l 555 -395 l 555 1188 l 383 1188 "},"§":{"x_min":50.40625,"x_max":1071.203125,"ha":1000,"o":"m 429 298 b 350 404 368 311 330 308 b 442 505 359 452 384 505 b 516 493 465 505 494 498 l 676 461 b 784 355 791 438 798 419 b 692 250 774 306 753 250 b 635 258 677 250 649 255 l 429 298 m 1061 776 b 700 1050 1115 1036 936 1050 b 224 777 324 1050 256 936 b 249 570 207 701 191 619 b 111 363 150 543 127 445 b 255 127 75 195 97 158 l 567 70 b 666 -23 645 55 683 50 b 459 -106 654 -86 625 -106 b 320 26 327 -106 300 -91 l 69 26 b 412 -323 3 -288 108 -323 b 941 -22 825 -323 897 -227 b 895 169 958 65 968 143 b 1023 383 988 212 1003 294 b 833 636 1064 580 999 604 l 587 683 b 493 765 512 698 478 694 b 655 833 502 811 524 833 b 789 813 732 833 770 830 b 796 718 807 798 805 769 l 1049 718 l 1061 776 "},"Ý":{"x_min":195,"x_max":1202,"ha":983,"o":"m 1202 1041 l 886 1041 l 615 640 l 605 640 l 506 1041 l 195 1041 l 416 365 l 340 0 l 612 0 l 688 365 l 1202 1041 m 871 1362 l 558 1195 l 578 1109 l 906 1208 l 871 1362 "},"b":{"x_min":75.3125,"x_max":893.6875,"ha":851,"o":"m 291 1041 l 75 0 l 309 0 l 329 126 l 340 126 b 517 -8 346 16 415 -8 b 844 259 690 -8 803 66 l 878 426 b 672 737 924 648 868 737 b 551 716 630 737 588 733 b 450 625 513 700 479 672 l 440 625 l 525 1041 l 291 1041 m 475 175 b 385 365 351 175 355 223 b 554 554 419 530 457 554 b 632 365 663 554 657 487 b 475 175 599 211 574 175 "},"q":{"x_min":98.0625,"x_max":917.640625,"ha":860,"o":"m 699 -315 l 917 729 l 683 729 l 664 613 l 653 613 b 475 737 646 712 577 737 b 148 469 302 737 188 662 l 113 302 b 320 -8 66 80 124 -8 b 441 13 363 -8 404 -4 b 543 109 479 30 513 59 l 554 109 l 465 -315 l 699 -315 m 517 554 b 607 363 641 554 635 505 b 438 175 571 198 535 175 b 360 363 329 175 335 241 b 517 554 392 518 418 554 "},"Ω":{"x_min":66.421875,"x_max":1297.75,"ha":1285,"o":"m 340 175 l 103 175 l 66 0 l 553 0 l 580 133 b 433 523 466 195 394 336 b 812 862 476 723 635 862 b 1043 530 1000 862 1080 704 b 732 133 1000 319 873 206 l 704 0 l 1190 0 l 1227 175 l 985 175 l 985 179 b 1288 572 1120 258 1247 381 b 847 1036 1337 812 1185 1036 b 205 569 521 1036 258 826 b 340 179 165 379 251 248 l 340 175 "},"Ö":{"x_min":109.109375,"x_max":1142.484375,"ha":1056,"o":"m 516 -8 b 1067 373 792 -8 1000 52 l 1128 668 b 736 1050 1195 988 1013 1050 b 184 668 460 1050 250 988 l 122 373 b 516 -8 56 52 239 -8 m 566 233 b 410 404 425 233 381 248 l 459 638 b 686 808 494 793 544 808 b 842 638 827 808 874 793 l 793 404 b 566 233 761 248 708 233 m 720 1301 l 572 1301 l 542 1158 l 690 1158 l 720 1301 m 1006 1301 l 857 1301 l 827 1158 l 976 1158 l 1006 1301 "},"ﬂ":{"x_min":121,"x_max":1044,"ha":925,"o":"m 1044 1041 l 809 1041 l 593 0 l 827 0 l 1044 1041 m 666 729 l 507 729 l 513 755 b 642 866 532 847 538 866 b 684 859 657 866 671 863 l 721 1041 b 287 800 410 1044 327 991 l 273 729 l 179 729 l 142 554 l 236 554 l 121 0 l 355 0 l 470 554 l 630 554 l 666 729 "},"z":{"x_min":29,"x_max":799.0625,"ha":689,"o":"m 207 729 l 171 562 l 483 562 l 69 197 l 29 0 l 646 0 l 682 166 l 336 166 l 759 540 l 799 729 l 207 729 "},"™":{"x_min":188,"x_max":1393,"ha":1194,"o":"m 1393 1041 l 1192 1041 l 1000 709 l 945 1041 l 744 1041 l 629 480 l 755 480 l 848 929 l 851 929 l 917 480 l 988 480 l 1240 929 l 1243 929 l 1150 480 l 1277 480 l 1393 1041 m 684 1041 l 211 1041 l 188 926 l 355 926 l 262 480 l 401 480 l 494 926 l 661 926 l 684 1041 "},"ã":{"x_min":91.328125,"x_max":910.078125,"ha":846,"o":"m 454 301 b 568 235 530 301 580 296 b 421 146 552 158 519 146 b 335 225 386 146 319 146 b 454 301 350 292 396 301 m 519 0 l 753 0 l 848 456 b 567 737 900 707 806 737 b 334 710 484 737 401 737 b 190 512 266 682 214 626 l 424 512 b 537 592 437 578 478 592 b 620 481 639 592 633 549 l 595 365 l 584 365 b 406 447 576 449 473 447 b 100 218 237 447 136 393 b 312 -7 62 32 149 -7 b 542 108 394 -7 503 8 l 550 108 l 519 0 m 810 1018 b 726 954 790 988 761 954 b 629 1002 692 954 663 977 b 514 1049 598 1026 563 1049 b 308 916 430 1049 361 984 l 407 856 b 501 918 432 889 460 918 b 588 871 531 918 557 894 b 714 824 621 847 659 824 b 910 961 797 824 861 892 l 810 1018 "},"æ":{"x_min":87.328125,"x_max":1311.734375,"ha":1288,"o":"m 844 455 b 983 587 866 551 900 587 b 1075 455 1063 587 1097 563 l 844 455 m 450 302 b 564 236 526 302 576 297 b 418 147 548 159 516 147 b 333 226 383 147 316 147 b 450 302 346 293 392 302 m 591 365 l 580 365 b 402 447 571 447 469 447 b 96 218 233 447 132 393 b 308 -8 58 31 145 -8 b 624 101 433 -8 563 -5 l 632 101 b 863 -8 643 0 780 -8 b 1126 34 967 -8 1057 0 b 1264 243 1196 70 1241 133 l 1034 243 b 897 158 1019 166 970 158 b 817 323 800 158 790 195 l 1282 323 l 1290 363 b 1019 737 1351 661 1287 737 b 777 638 958 737 817 733 l 771 638 b 563 737 765 737 618 737 b 330 709 480 737 397 737 b 186 512 262 681 210 626 l 420 512 b 533 591 433 577 474 591 b 616 480 635 591 629 548 l 591 365 "},"®":{"x_min":123.375,"x_max":1184.171875,"ha":1111,"o":"m 543 -8 b 1172 520 829 -8 1111 227 b 764 1050 1233 813 1049 1050 b 135 520 476 1050 196 813 b 543 -8 73 227 256 -8 m 568 112 b 253 520 344 112 205 294 b 738 929 299 747 514 929 b 1053 520 957 929 1100 747 b 568 112 1006 294 787 112 m 765 472 b 950 627 866 479 928 522 b 769 802 981 779 898 802 l 489 802 l 369 230 l 487 230 l 536 465 l 641 465 l 717 230 l 851 230 l 765 472 m 555 556 l 588 711 l 724 711 b 834 643 779 711 849 711 b 720 556 819 570 783 555 l 555 556 "},"É":{"x_min":87,"x_max":1040,"ha":942,"o":"m 529 813 l 993 813 l 1040 1041 l 303 1041 l 87 0 l 833 0 l 880 227 l 406 227 l 449 430 l 884 430 l 924 623 l 488 623 l 529 813 m 850 1362 l 537 1195 l 558 1109 l 886 1208 l 850 1362 "},"~":{"x_min":124,"x_max":852.203125,"ha":833,"o":"m 720 498 b 649 381 714 454 684 381 b 577 418 628 381 605 391 l 449 526 b 363 558 419 550 390 558 b 124 270 216 558 149 393 l 256 270 b 320 391 269 313 284 391 b 382 365 337 391 358 383 l 526 254 b 619 213 560 227 590 213 b 852 498 758 213 827 377 l 720 498 "},"³":{"x_min":158.609375,"x_max":757.78125,"ha":600,"o":"m 406 679 l 449 679 b 537 620 541 679 547 663 b 420 544 522 548 492 544 b 337 618 359 544 322 548 l 341 638 l 172 638 l 165 605 b 385 413 127 427 247 413 b 702 600 551 413 668 438 b 619 734 717 672 705 730 l 622 741 b 753 881 705 751 738 812 b 518 1050 785 1041 642 1050 b 224 856 364 1050 261 1034 l 220 834 l 389 834 l 391 847 b 499 919 405 918 435 919 b 577 851 589 919 588 901 b 473 800 569 808 559 800 l 431 800 l 406 679 "},"¡":{"x_min":46,"x_max":501,"ha":485,"o":"m 501 729 l 280 729 l 229 487 l 450 487 l 501 729 m 46 -315 l 299 -315 l 420 316 l 186 316 l 46 -315 "},"[":{"x_min":34,"x_max":665.859375,"ha":535,"o":"m 296 1050 l 34 -208 l 403 -208 l 450 19 l 340 19 l 507 822 l 618 822 l 665 1050 l 296 1050 "},"L":{"x_min":79,"x_max":828,"ha":813,"o":"m 567 1041 l 295 1041 l 79 0 l 777 0 l 828 241 l 401 241 l 567 1041 "}," ":{"x_min":0,"x_max":0,"ha":500},"∑":{"x_min":244.828125,"x_max":1147.109375,"ha":1196,"o":"m 1147 -140 l 1147 59 l 563 59 l 563 65 l 910 459 l 594 816 l 594 822 l 1113 822 l 1113 1018 l 265 1018 l 265 865 l 639 433 l 244 -8 l 244 -140 l 1147 -140 "},"%":{"x_min":170.34375,"x_max":1281.078125,"ha":1260,"o":"m 1272 333 b 1086 520 1305 500 1245 520 b 830 331 928 520 868 498 l 797 179 b 977 -8 767 12 817 -8 b 1241 180 1135 -8 1203 13 l 1272 333 m 1109 201 b 1000 112 1090 113 1068 112 b 939 201 933 112 920 113 l 962 316 b 1060 400 979 398 993 400 b 1132 316 1133 400 1149 398 l 1109 201 m 653 862 b 467 1050 686 1029 626 1050 b 211 861 309 1050 249 1027 l 178 708 b 358 520 148 541 198 520 b 622 709 516 520 584 543 l 653 862 m 490 730 b 381 641 471 643 449 641 b 320 730 314 641 301 643 l 343 845 b 441 929 360 927 374 929 b 513 845 514 929 530 927 l 490 730 m 1226 1041 l 1062 1041 l 243 0 l 407 0 l 1226 1041 "},"P":{"x_min":78.8125,"x_max":1096.15625,"ha":988,"o":"m 351 0 l 406 266 l 647 266 b 1077 659 932 266 1016 366 b 808 1041 1135 931 1061 1041 l 295 1041 l 78 0 l 351 0 m 457 508 l 517 800 l 703 800 b 797 659 809 800 819 766 b 643 508 768 525 751 512 l 457 508 "},"∏":{"x_min":243.640625,"x_max":1399.21875,"ha":1457,"o":"m 1399 819 l 1399 1018 l 243 1018 l 243 819 l 417 819 l 417 -140 l 651 -140 l 651 819 l 990 819 l 990 -140 l 1223 -140 l 1223 819 l 1399 819 "},"À":{"x_min":-16,"x_max":1014,"ha":1018,"o":"m 720 179 l 736 0 l 1014 0 l 920 1041 l 506 1041 l -16 0 l 267 0 l 354 179 l 720 179 m 707 381 l 454 381 l 673 833 l 676 833 l 707 381 m 679 1362 l 578 1208 l 865 1109 l 921 1195 l 679 1362 "},"_":{"x_min":-37,"x_max":659,"ha":694,"o":"m 659 -104 l -22 -104 l -37 -173 l 644 -173 l 659 -104 "},"ñ":{"x_min":77.734375,"x_max":917.546875,"ha":860,"o":"m 230 729 l 77 0 l 311 0 l 394 401 b 550 554 413 490 445 554 b 624 449 626 554 637 519 l 530 0 l 765 0 l 869 504 b 688 737 902 661 846 737 b 547 708 634 737 588 731 b 445 593 507 687 475 651 l 435 593 l 464 729 l 230 729 m 818 1018 b 733 954 797 988 769 954 b 637 1002 699 954 671 977 b 521 1049 605 1026 570 1049 b 315 916 438 1049 369 984 l 415 856 b 509 918 439 889 468 918 b 596 871 539 918 565 894 b 721 824 629 847 667 824 b 917 961 804 824 868 892 l 818 1018 "},"+":{"x_min":132,"x_max":845,"ha":833,"o":"m 425 463 l 164 463 l 132 304 l 393 304 l 334 27 l 491 27 l 549 304 l 812 304 l 845 463 l 582 463 l 638 729 l 481 729 l 425 463 "},"‚":{"x_min":22,"x_max":345.96875,"ha":367,"o":"m 125 233 l 76 0 l 160 0 b 43 -93 145 -69 121 -91 l 22 -197 b 296 0 208 -198 271 -143 l 345 233 l 125 233 "},"½":{"x_min":128,"x_max":1507.4375,"ha":1500,"o":"m 1295 1041 l 1132 1041 l 313 0 l 476 0 l 1295 1041 m 616 1041 l 409 1041 l 128 852 l 206 746 l 409 894 l 310 419 l 487 419 l 616 1041 m 1438 130 l 1083 130 b 1275 230 1101 213 1133 196 b 1499 432 1422 266 1471 292 b 1279 630 1536 609 1435 630 b 975 427 1110 630 1011 596 l 970 396 l 1139 396 l 1144 427 b 1253 499 1159 494 1173 499 b 1331 430 1324 500 1343 492 b 1193 342 1318 366 1307 367 b 914 130 982 298 944 274 l 887 0 l 1411 0 l 1438 130 "},"Æ":{"x_min":-35,"x_max":1621,"ha":1492,"o":"m 758 377 l 479 377 l 732 813 l 849 813 l 758 377 m 679 0 l 1404 0 l 1452 227 l 985 227 l 1026 426 l 1456 426 l 1497 619 l 1067 619 l 1108 813 l 1574 813 l 1621 1041 l 581 1041 l -35 0 l 260 0 l 366 184 l 717 184 l 679 0 "},"Ë":{"x_min":87,"x_max":1040,"ha":942,"o":"m 529 813 l 993 813 l 1040 1041 l 303 1041 l 87 0 l 833 0 l 880 227 l 406 227 l 449 430 l 884 430 l 924 623 l 488 623 l 529 813 m 664 1301 l 515 1301 l 485 1158 l 634 1158 l 664 1301 m 950 1301 l 801 1301 l 771 1158 l 920 1158 l 950 1301 "},"'":{"x_min":235,"x_max":459.578125,"ha":306,"o":"m 271 1041 l 235 861 l 254 681 l 327 681 l 422 861 l 459 1041 l 271 1041 "},"Š":{"x_min":104.96875,"x_max":1065.34375,"ha":994,"o":"m 568 641 b 476 733 497 647 458 650 b 654 822 488 791 507 822 b 783 715 763 822 806 822 l 1044 715 l 1054 758 b 701 1050 1114 1045 924 1050 b 203 731 435 1050 266 1030 b 537 416 141 433 289 434 l 595 412 b 718 315 722 404 737 405 b 529 219 700 227 656 219 b 382 338 395 219 359 230 l 120 338 b 481 -8 50 -2 221 -8 b 994 333 930 -8 958 161 b 680 633 1044 572 977 611 l 568 641 m 719 1131 l 999 1283 l 983 1362 l 749 1276 l 561 1362 l 507 1283 l 719 1131 "},"ª":{"x_min":254.65625,"x_max":719.359375,"ha":667,"o":"m 556 827 l 552 827 b 441 875 544 877 484 875 b 260 736 339 875 282 843 b 382 594 237 629 287 594 b 464 611 408 594 438 598 b 521 672 488 622 510 641 l 523 672 l 508 600 l 650 600 l 714 905 b 538 1050 741 1040 657 1050 b 400 1033 489 1050 441 1050 b 314 913 361 1016 329 981 l 456 913 b 522 961 464 952 485 961 b 568 890 575 961 582 955 l 556 827 m 472 787 b 538 743 502 787 548 788 b 468 693 532 711 525 693 b 401 737 394 693 394 708 b 472 787 411 781 439 787 "},"Œ":{"x_min":117.609375,"x_max":1660.046875,"ha":1529,"o":"m 727 1 l 1453 1 l 1500 229 l 1028 229 l 1069 429 l 1502 429 l 1542 622 l 1110 622 l 1150 815 l 1613 815 l 1660 1043 l 944 1043 l 927 918 l 918 918 b 660 1051 900 1040 768 1051 b 177 595 337 1051 240 895 l 136 400 b 485 -6 68 72 179 -6 b 752 116 591 -5 674 18 l 761 116 l 727 1 m 812 434 b 550 220 780 280 749 220 b 415 434 403 220 379 254 l 458 636 b 675 823 488 780 527 823 b 854 636 833 823 889 804 l 812 434 "},"˛":{"x_min":70.515625,"x_max":324.03125,"ha":436,"o":"m 200 0 b 73 -137 141 -27 87 -73 b 190 -265 55 -222 115 -265 b 270 -249 216 -265 245 -260 l 292 -144 b 228 -156 270 -151 250 -156 b 185 -116 201 -156 178 -147 b 324 0 196 -67 283 -22 l 200 0 "},"ð":{"x_min":99.21875,"x_max":958.546875,"ha":824,"o":"m 522 554 b 603 363 631 554 635 522 b 443 174 569 205 552 174 b 356 363 330 174 322 205 b 522 554 389 522 409 554 m 449 991 b 525 915 483 959 506 938 l 351 862 l 423 774 l 588 824 b 635 663 616 777 631 716 b 452 731 593 716 561 731 b 122 363 228 731 163 562 b 401 -8 61 72 109 -8 b 841 386 698 -8 774 63 b 795 887 886 604 867 777 l 958 937 l 893 1026 l 727 976 b 644 1049 695 1011 671 1031 l 449 991 "},"T":{"x_min":167,"x_max":1026,"ha":826,"o":"m 700 800 l 975 800 l 1026 1041 l 217 1041 l 167 800 l 428 800 l 262 0 l 534 0 l 700 800 "},"š":{"x_min":82.390625,"x_max":843,"ha":803,"o":"m 818 522 l 825 556 b 547 737 863 736 678 737 b 147 498 348 737 196 733 b 452 281 117 350 155 281 b 559 209 533 281 574 281 b 423 145 547 152 529 145 b 345 155 394 145 366 145 b 325 227 326 166 317 187 l 91 227 b 392 -8 41 -12 207 -8 b 792 237 580 -8 749 23 b 490 461 836 441 731 455 b 380 525 370 463 373 488 b 514 583 389 568 392 583 b 572 576 533 583 556 583 b 598 522 589 568 601 552 l 818 522 m 561 819 l 843 970 l 825 1050 l 593 963 l 403 1050 l 350 970 l 561 819 "},"℮":{"x_min":268.484375,"x_max":1419.984375,"ha":1499,"o":"m 1419 505 l 1419 520 b 842 1050 1419 812 1162 1050 b 268 520 525 1050 268 812 b 842 -6 268 229 525 -6 b 1298 197 1029 -6 1196 73 l 1215 197 b 844 22 1125 91 993 22 b 491 179 706 22 582 83 b 479 211 483 188 479 198 l 479 500 b 487 505 479 504 482 505 l 1419 505 m 1209 543 b 1202 534 1209 540 1206 534 l 487 534 b 479 543 482 534 479 540 l 479 826 b 493 862 479 841 483 854 b 844 1018 584 956 708 1018 b 1194 868 981 1018 1104 958 b 1209 833 1203 858 1209 845 l 1209 543 "},"Þ":{"x_min":79.046875,"x_max":1068.609375,"ha":988,"o":"m 351 0 l 378 133 l 619 133 b 1050 526 903 133 989 233 b 781 908 1106 798 1034 908 l 540 908 l 567 1041 l 295 1041 l 79 0 l 351 0 m 428 375 l 490 666 l 676 666 b 770 526 782 666 792 633 b 615 375 741 391 724 379 l 428 375 "},"j":{"x_min":-71,"x_max":491,"ha":336,"o":"m 427 729 l 192 729 l 43 15 b -36 -54 36 -20 21 -54 l -71 -218 b -4 -226 -49 -225 -27 -226 b 273 -9 149 -226 239 -172 l 427 729 m 491 1041 l 256 1041 l 218 858 l 452 858 l 491 1041 "},"1":{"x_min":221,"x_max":976,"ha":1000,"o":"m 976 1041 l 657 1041 l 221 727 l 337 550 l 653 795 l 487 0 l 759 0 l 976 1041 "},"›":{"x_min":81.96875,"x_max":463,"ha":458,"o":"m 218 51 l 463 388 l 347 715 l 182 623 l 265 388 l 81 135 l 218 51 "},"ı":{"x_min":59,"x_max":446,"ha":357,"o":"m 446 729 l 211 729 l 59 0 l 293 0 l 446 729 "},"ℓ":{"x_min":104.703125,"x_max":939.546875,"ha":931,"o":"m 841 317 b 587 180 777 248 680 180 b 472 314 510 180 459 230 l 476 346 b 932 860 732 524 894 677 b 728 1128 960 1002 907 1128 b 332 720 545 1128 393 1009 l 263 392 b 104 296 212 360 156 328 l 144 180 b 235 234 175 198 202 214 b 234 221 235 230 235 225 b 492 -3 239 82 315 -3 b 918 217 631 -3 789 55 l 841 317 m 564 773 b 709 978 597 930 661 978 b 767 860 767 978 782 931 b 517 539 747 761 647 646 l 564 773 "},"ä":{"x_min":91.328125,"x_max":862.390625,"ha":846,"o":"m 454 301 b 568 234 530 301 580 295 b 421 145 552 158 519 145 b 335 225 386 145 319 145 b 454 301 350 291 396 301 m 519 0 l 753 0 l 848 455 b 567 737 900 706 806 737 b 334 709 484 737 401 737 b 190 512 266 681 214 626 l 424 512 b 537 591 437 577 478 591 b 620 480 639 591 633 548 l 595 365 l 584 365 b 406 447 576 448 473 447 b 100 218 237 447 136 393 b 312 -8 62 31 149 -8 b 542 108 394 -8 503 8 l 550 108 l 519 0 m 550 988 l 402 988 l 372 845 l 520 845 l 550 988 m 836 988 l 688 988 l 658 845 l 806 845 l 836 988 "},"<":{"x_min":131,"x_max":901,"ha":833,"o":"m 901 729 l 166 467 l 131 301 l 756 40 l 793 217 l 369 383 l 369 385 l 862 551 l 901 729 "},"£":{"x_min":95.203125,"x_max":1126.546875,"ha":1000,"o":"m 1099 695 l 1110 744 b 798 1050 1159 977 1106 1050 b 337 734 483 1050 387 958 l 306 584 l 185 584 l 144 383 l 265 383 b 141 222 246 297 235 222 l 95 0 l 955 0 l 1001 222 l 439 222 l 440 229 b 537 383 506 258 518 293 l 796 383 l 837 584 l 578 584 l 601 694 b 748 818 621 793 651 818 b 831 794 792 818 817 812 b 832 695 845 777 843 747 l 1099 695 "},"¹":{"x_min":195,"x_max":684,"ha":600,"o":"m 684 1050 l 476 1050 l 195 861 l 274 755 l 475 902 l 374 419 l 551 419 l 684 1050 "},"t":{"x_min":134.65625,"x_max":763.65625,"ha":674,"o":"m 763 729 l 492 729 l 524 883 l 289 883 l 258 729 l 171 729 l 134 554 l 221 554 l 146 194 b 378 -8 108 11 228 -8 b 691 234 569 -8 650 36 l 705 300 l 518 300 l 509 261 b 428 166 495 211 490 166 b 388 227 385 166 379 184 l 456 554 l 726 554 l 763 729 "},"¬":{"x_min":165,"x_max":878,"ha":833,"o":"m 637 218 l 793 218 l 878 623 l 197 623 l 165 463 l 688 463 l 637 218 "},"ù":{"x_min":108.734375,"x_max":907.859375,"ha":854,"o":"m 755 0 l 907 729 l 673 729 l 579 280 b 426 175 564 208 488 175 b 364 294 347 175 351 227 l 455 729 l 221 729 l 117 230 b 310 -8 80 52 168 -8 b 553 140 409 -8 498 27 l 564 140 l 528 0 l 755 0 m 533 1050 l 432 895 l 720 797 l 775 883 l 533 1050 "},"W":{"x_min":204.171875,"x_max":1731.328125,"ha":1533,"o":"m 1137 238 l 1128 238 l 1112 1041 l 828 1041 l 470 238 l 461 238 l 480 1041 l 204 1041 l 208 0 l 597 0 l 882 652 l 892 652 l 895 0 l 1288 0 l 1731 1041 l 1457 1041 l 1137 238 "},"ï":{"x_min":59,"x_max":598,"ha":357,"o":"m 445 729 l 211 729 l 59 0 l 293 0 l 445 729 m 312 988 l 163 988 l 133 845 l 282 845 l 312 988 m 598 988 l 449 988 l 419 845 l 568 845 l 598 988 "},">":{"x_min":76,"x_max":846.328125,"ha":833,"o":"m 220 729 l 182 551 l 608 385 l 608 383 l 112 217 l 76 40 l 810 301 l 846 467 l 220 729 "},"v":{"x_min":142.546875,"x_max":883,"ha":736,"o":"m 883 729 l 640 729 l 403 159 l 397 159 l 387 729 l 142 729 l 187 0 l 554 0 l 883 729 "},"û":{"x_min":108.734375,"x_max":907.859375,"ha":854,"o":"m 755 0 l 907 729 l 673 729 l 579 280 b 426 175 564 208 488 175 b 364 294 347 175 351 227 l 455 729 l 221 729 l 117 230 b 310 -8 80 52 168 -8 b 553 140 409 -8 498 27 l 564 140 l 528 0 l 755 0 m 635 1050 l 360 898 l 379 819 l 605 905 l 801 819 l 853 898 l 635 1050 "},"Ò":{"x_min":109.109375,"x_max":1142.484375,"ha":1056,"o":"m 516 -8 b 1067 373 792 -8 1000 52 l 1128 668 b 736 1050 1195 988 1013 1050 b 184 668 460 1050 250 988 l 122 373 b 516 -8 56 52 239 -8 m 566 233 b 410 404 425 233 381 248 l 459 638 b 686 808 494 793 544 808 b 842 638 827 808 874 793 l 793 404 b 566 233 761 248 708 233 m 697 1362 l 596 1208 l 883 1109 l 939 1195 l 697 1362 "},"&":{"x_min":128.265625,"x_max":1065.875,"ha":1075,"o":"m 707 235 b 562 213 656 213 603 213 b 397 351 438 213 367 210 b 485 474 407 402 418 467 l 707 235 m 913 1 l 1065 149 l 974 253 b 1022 355 997 285 1015 321 l 1064 559 l 848 559 l 819 421 l 617 649 b 584 752 590 681 575 705 b 693 844 599 827 624 844 b 791 821 749 844 777 839 b 785 713 803 803 799 771 l 1019 713 l 1030 766 b 736 1051 1086 1017 967 1051 b 337 771 510 1051 388 1010 b 379 595 320 685 327 652 b 140 323 223 592 169 455 b 516 -7 78 20 255 -7 b 837 87 628 -7 750 -7 l 913 1 "},"˝":{"x_min":283,"x_max":915.953125,"ha":826,"o":"m 529 1114 l 283 871 l 332 806 l 617 998 l 529 1114 m 827 1114 l 581 871 l 630 806 l 915 998 l 827 1114 "},"Ð":{"x_min":47.4375,"x_max":1149.109375,"ha":1076,"o":"m 201 629 l 86 629 l 47 436 l 161 436 l 70 0 l 624 0 b 1085 419 909 0 1027 134 l 1132 637 b 804 1041 1193 933 1088 1041 l 287 1041 l 201 629 m 508 800 l 747 800 b 851 637 842 800 879 772 l 805 419 b 631 241 782 309 732 241 l 393 241 l 434 436 l 620 436 l 659 629 l 473 629 l 508 800 "},"I":{"x_min":84,"x_max":573,"ha":450,"o":"m 573 1041 l 300 1041 l 84 0 l 356 0 l 573 1041 "},"ˉ":{"x_min":279,"x_max":733.609375,"ha":644,"o":"m 306 980 l 279 850 l 706 850 l 733 980 l 306 980 "},"G":{"x_min":107.28125,"x_max":1144.3125,"ha":1053,"o":"m 1130 718 b 747 1050 1198 1048 1011 1050 b 180 654 448 1050 252 998 l 124 384 b 527 -8 53 47 206 -8 b 1064 406 892 -8 992 55 l 1102 588 l 638 588 l 599 395 l 787 395 b 574 219 755 251 713 219 b 412 423 433 219 374 238 l 448 593 b 700 822 485 761 504 822 b 853 718 781 822 870 823 l 1130 718 "},"`":{"x_min":289,"x_max":632,"ha":561,"o":"m 389 1050 l 289 895 l 576 797 l 632 883 l 389 1050 "},"·":{"x_min":189,"x_max":460,"ha":500,"o":"m 460 504 l 239 504 l 189 262 l 409 262 l 460 504 "},"r":{"x_min":73.421875,"x_max":781.875,"ha":696,"o":"m 541 411 l 752 411 l 764 468 b 643 737 792 601 807 737 b 528 711 600 737 562 729 b 439 622 494 693 465 663 l 430 622 l 453 729 l 225 729 l 73 0 l 307 0 l 398 437 b 510 554 410 497 439 554 b 548 445 574 554 559 497 l 541 411 "},"¿":{"x_min":39.4375,"x_max":759,"ha":840,"o":"m 407 358 l 398 316 b 307 230 390 275 369 255 b 49 -55 149 165 88 125 b 337 -323 0 -291 128 -323 b 749 -55 554 -323 696 -293 l 759 -12 l 524 -12 l 515 -55 b 376 -140 500 -133 445 -140 b 283 -55 303 -140 269 -129 b 392 62 300 20 339 38 l 445 86 b 632 316 584 150 606 187 l 641 358 l 407 358 m 712 729 l 492 729 l 441 487 l 662 487 l 712 729 "},"ý":{"x_min":101,"x_max":888,"ha":740,"o":"m 888 729 l 648 729 l 408 136 l 406 136 l 388 729 l 143 729 l 203 0 l 331 0 b 175 -156 309 -83 273 -156 b 135 -154 162 -156 148 -155 l 101 -319 b 179 -323 128 -320 152 -323 b 542 -63 378 -323 463 -255 l 888 729 m 687 1050 l 374 883 l 395 797 l 723 895 l 687 1050 "},"x":{"x_min":-8,"x_max":884,"ha":757,"o":"m 884 729 l 611 729 l 483 527 l 444 729 l 173 729 l 284 386 l -8 0 l 273 0 l 423 240 l 475 0 l 750 0 l 623 386 l 884 729 "},"è":{"x_min":95.296875,"x_max":837.015625,"ha":797,"o":"m 369 455 b 504 570 391 551 421 570 b 600 455 584 570 622 563 l 369 455 m 559 243 b 422 158 544 166 495 158 b 342 323 325 158 315 195 l 807 323 l 815 363 b 544 737 876 661 812 737 b 116 363 256 737 175 644 b 388 -8 59 91 107 -8 b 649 34 492 -8 581 0 b 789 243 718 70 766 133 l 559 243 m 504 1050 l 403 895 l 691 797 l 747 883 l 504 1050 "},"º":{"x_min":267.859375,"x_max":727.578125,"ha":667,"o":"m 545 1050 b 284 822 356 1050 319 995 b 450 594 247 648 261 594 b 711 822 639 594 675 648 b 545 1050 747 995 735 1050 m 522 943 b 570 822 579 943 592 926 b 472 701 548 718 529 701 b 425 822 414 701 403 718 b 522 943 447 926 465 943 "},"Ø":{"x_min":-19,"x_max":1274,"ha":1056,"o":"m 1274 1084 l 1092 952 b 744 1049 1012 1049 880 1049 b 147 508 323 1049 232 920 l 113 343 b 108 215 99 280 103 246 l 20 151 l -19 -41 l 160 92 b 524 -7 235 -7 400 -7 b 1106 543 947 -7 1024 147 b 1141 822 1125 636 1146 731 l 1233 888 l 1274 1084 m 837 591 l 790 369 b 582 233 771 283 710 233 b 411 276 541 233 423 233 l 837 591 m 413 444 l 439 565 b 694 808 485 791 533 808 b 842 763 756 808 808 808 l 413 444 "},"∞":{"x_min":215.0625,"x_max":1279.453125,"ha":1379,"o":"m 1279 422 b 1033 687 1279 583 1170 686 b 756 516 894 688 818 587 b 477 687 677 620 594 687 b 215 412 329 687 215 575 b 464 143 215 251 333 143 b 747 318 588 143 668 219 b 1024 143 849 177 943 143 b 1279 420 1154 143 1279 245 l 1279 422 m 477 265 b 337 412 397 265 337 333 b 473 568 337 506 394 568 b 681 408 571 568 622 493 b 480 265 628 343 563 265 l 477 265 m 1020 568 b 1156 412 1102 568 1156 502 b 1027 265 1156 345 1110 265 b 816 418 958 265 907 300 b 1019 568 865 475 931 568 l 1020 568 "},"μ":{"x_min":8,"x_max":912,"ha":854,"o":"m 759 0 l 912 729 l 677 729 l 583 280 b 430 175 568 208 492 175 b 368 294 351 175 355 227 l 460 729 l 225 729 l 8 -315 l 242 -315 l 306 -8 b 558 140 413 -8 502 27 l 568 140 l 532 0 l 759 0 "},"÷":{"x_min":132,"x_max":845,"ha":833,"o":"m 132 304 l 812 304 l 845 463 l 164 463 l 132 304 m 493 38 l 526 198 l 370 198 l 337 38 l 493 38 m 604 569 l 638 729 l 481 729 l 447 569 l 604 569 "},"h":{"x_min":77.734375,"x_max":878.859375,"ha":860,"o":"m 528 1041 l 294 1041 l 77 0 l 311 0 l 394 401 b 550 554 413 490 445 554 b 624 448 626 554 637 519 l 530 0 l 765 0 l 869 504 b 688 737 902 661 846 737 b 547 708 634 737 588 730 b 445 593 507 687 475 651 l 435 593 l 528 1041 "},".":{"x_min":123,"x_max":394,"ha":500,"o":"m 394 241 l 173 241 l 123 0 l 343 0 l 394 241 "},";":{"x_min":75,"x_max":502,"ha":500,"o":"m 75 -197 b 349 0 261 -198 323 -143 l 398 233 l 178 233 l 129 0 l 213 0 b 96 -93 198 -69 174 -91 l 75 -197 m 502 729 l 281 729 l 231 487 l 451 487 l 502 729 "},"f":{"x_min":121,"x_max":721,"ha":546,"o":"m 666 729 l 507 729 l 512 755 b 642 866 531 847 538 866 b 684 859 657 866 670 863 l 721 1041 b 286 800 410 1044 327 991 l 273 729 l 179 729 l 142 554 l 236 554 l 121 0 l 355 0 l 470 554 l 629 554 l 666 729 "},"“":{"x_min":191.9375,"x_max":822,"ha":679,"o":"m 718 619 l 767 852 l 683 852 b 800 945 696 922 722 944 l 822 1050 b 547 852 635 1051 571 995 l 498 619 l 718 619 m 412 619 l 461 852 l 377 852 b 494 945 390 922 416 944 l 515 1050 b 240 852 329 1051 265 995 l 191 619 l 412 619 "},"A":{"x_min":-16,"x_max":1014,"ha":1018,"o":"m 720 179 l 736 0 l 1014 0 l 920 1041 l 506 1041 l -16 0 l 267 0 l 354 179 l 720 179 m 707 381 l 454 381 l 673 833 l 676 833 l 707 381 "},"6":{"x_min":138.390625,"x_max":1069.515625,"ha":1000,"o":"m 554 416 b 699 330 674 416 719 418 b 510 209 676 216 656 209 b 404 325 396 209 383 229 b 554 416 420 406 453 416 m 1049 725 l 1059 769 b 717 1051 1115 1040 928 1051 b 219 675 422 1051 285 997 l 164 413 b 496 -6 91 62 162 -6 b 960 334 758 -6 900 44 b 657 633 1015 605 897 633 b 449 525 569 633 506 631 l 446 525 l 480 690 b 672 834 510 829 548 834 b 791 725 773 834 813 829 l 1049 725 "},"‘":{"x_min":192.03125,"x_max":516,"ha":367,"o":"m 412 619 l 461 852 l 377 852 b 494 945 390 922 416 944 l 516 1050 b 241 852 329 1051 265 995 l 192 619 l 412 619 "},"π":{"x_min":96.484375,"x_max":1177.203125,"ha":1061,"o":"m 1120 586 l 1177 765 l 447 765 b 150 712 291 765 197 745 l 145 570 b 316 586 189 583 246 586 b 96 0 281 423 178 151 l 326 0 b 548 586 404 116 507 411 l 767 586 l 692 227 b 673 0 669 120 658 27 l 902 0 b 933 245 900 48 909 131 l 1004 586 l 1120 586 "},"O":{"x_min":109.109375,"x_max":1142.484375,"ha":1056,"o":"m 516 -8 b 1067 373 792 -8 1000 52 l 1128 668 b 736 1050 1195 988 1013 1050 b 184 668 460 1050 250 988 l 122 373 b 516 -8 56 52 239 -8 m 566 233 b 410 404 425 233 381 248 l 459 638 b 686 808 494 793 544 808 b 842 638 827 808 874 793 l 793 404 b 566 233 761 248 708 233 "},"n":{"x_min":77.734375,"x_max":878.859375,"ha":860,"o":"m 230 729 l 77 0 l 311 0 l 394 401 b 550 554 413 490 445 554 b 624 448 626 554 637 519 l 530 0 l 765 0 l 869 504 b 688 737 902 661 846 737 b 547 708 634 737 588 730 b 445 593 507 687 475 651 l 435 593 l 464 729 l 230 729 "},"3":{"x_min":127.484375,"x_max":1060.109375,"ha":1000,"o":"m 513 431 l 578 431 b 713 334 721 431 728 405 b 532 208 689 213 644 208 b 403 330 437 208 378 213 l 410 365 l 151 365 l 139 309 b 500 -8 78 12 263 -8 b 965 300 730 -8 910 30 b 842 523 990 420 972 518 l 845 534 b 1051 769 973 551 1026 652 b 720 1050 1107 1036 885 1050 b 237 727 459 1050 299 1025 l 230 691 l 489 691 l 493 712 b 663 833 517 831 563 833 b 781 718 802 833 799 804 b 621 633 766 647 753 633 l 555 633 l 513 431 "},"9":{"x_min":124.59375,"x_max":1054.890625,"ha":1000,"o":"m 640 625 b 494 711 521 625 476 623 b 684 831 517 825 538 831 b 789 716 798 831 810 812 b 640 625 772 634 741 625 m 144 316 l 134 272 b 477 -9 77 1 265 -9 b 973 366 772 -9 907 44 l 1028 627 b 697 1048 1101 979 1032 1048 b 233 706 436 1048 294 997 b 537 408 177 436 297 408 b 743 516 625 408 686 409 l 746 516 l 712 351 b 522 206 684 212 646 206 b 403 316 421 206 381 212 l 144 316 "},"l":{"x_min":80,"x_max":531,"ha":401,"o":"m 531 1041 l 296 1041 l 80 0 l 314 0 l 531 1041 "},"¤":{"x_min":183.78125,"x_max":1011.734375,"ha":1000,"o":"m 806 350 b 891 520 827 382 875 435 b 872 656 902 590 881 627 l 1011 771 l 934 870 l 797 756 b 660 797 770 779 720 795 b 496 753 597 800 536 779 l 409 867 l 288 767 l 378 654 b 318 354 313 602 258 453 l 183 239 l 260 142 l 398 258 b 529 210 430 228 481 212 b 687 255 608 208 646 236 l 774 143 l 891 237 l 806 350 m 462 497 b 622 638 472 565 543 638 b 721 497 702 638 742 565 b 566 369 714 451 661 369 b 462 497 499 369 452 425 "},"∂":{"x_min":117.609375,"x_max":1053.84375,"ha":1004,"o":"m 354 913 b 600 980 399 938 488 980 b 818 633 781 980 857 822 l 810 593 l 808 593 b 572 730 789 634 720 730 b 124 350 354 730 169 566 b 415 -4 93 204 162 -4 b 1037 591 714 -4 963 241 b 665 1158 1109 940 940 1158 b 317 1065 495 1158 372 1098 l 354 913 m 477 172 b 353 348 384 172 332 248 b 590 559 377 465 480 559 b 749 423 696 559 745 472 b 480 172 707 304 598 172 l 477 172 "},"4":{"x_min":91,"x_max":1057,"ha":1000,"o":"m 1057 1041 l 655 1041 l 153 502 l 91 205 l 624 205 l 582 0 l 840 0 l 882 205 l 969 205 l 1012 406 l 925 406 l 1057 1041 m 666 406 l 346 406 l 745 827 l 754 827 l 666 406 "},"p":{"x_min":9.625,"x_max":897.34375,"ha":858,"o":"m 9 -315 l 243 -315 l 332 109 l 343 109 b 517 -8 359 9 431 -8 b 852 302 713 -8 805 80 l 887 469 b 672 737 927 662 845 737 b 537 712 622 737 575 731 b 442 613 498 694 466 663 l 431 613 l 461 729 l 227 729 l 9 -315 m 541 554 b 631 363 665 554 660 505 b 462 175 596 198 559 175 b 385 363 353 175 359 241 b 541 554 416 518 442 554 "},"‡":{"x_min":125,"x_max":1007,"ha":1000,"o":"m 823 1041 l 589 1041 l 525 729 l 277 729 l 239 545 l 487 545 l 410 183 l 163 183 l 125 0 l 372 0 l 307 -315 l 541 -315 l 606 0 l 854 0 l 892 183 l 644 183 l 721 545 l 968 545 l 1007 729 l 759 729 l 823 1041 "},"à":{"x_min":91.328125,"x_max":862.625,"ha":846,"o":"m 454 301 b 568 234 530 301 580 295 b 421 145 552 158 519 145 b 335 225 386 145 319 145 b 454 301 350 291 396 301 m 519 0 l 753 0 l 848 455 b 567 737 900 706 806 737 b 334 709 484 737 401 737 b 190 512 266 681 214 626 l 424 512 b 537 591 437 577 478 591 b 620 480 639 591 633 548 l 595 365 l 584 365 b 406 447 576 448 473 447 b 100 218 237 447 136 393 b 312 -8 62 31 149 -8 b 542 108 394 -8 503 8 l 550 108 l 519 0 m 528 1050 l 428 895 l 715 797 l 771 883 l 528 1050 "},"Ü":{"x_min":137.609375,"x_max":1181.390625,"ha":1071,"o":"m 909 1041 l 768 365 b 586 233 743 243 702 233 b 431 352 472 233 406 234 l 574 1041 l 302 1041 l 157 347 b 536 -8 106 97 127 -8 b 1037 347 835 -8 979 69 l 1181 1041 l 909 1041 m 726 1301 l 578 1301 l 548 1158 l 696 1158 l 726 1301 m 1012 1301 l 864 1301 l 834 1158 l 982 1158 l 1012 1301 "},"ó":{"x_min":99.21875,"x_max":862.609375,"ha":824,"o":"m 556 737 b 122 363 258 737 183 662 b 401 -8 61 72 109 -8 b 837 363 698 -8 774 63 b 556 737 901 672 856 737 m 522 554 b 603 363 631 554 635 522 b 443 175 569 205 552 175 b 356 363 330 175 322 205 b 522 554 389 522 409 554 m 728 1050 l 415 883 l 435 797 l 763 895 l 728 1050 "},"√":{"x_min":263,"x_max":1262,"ha":1251,"o":"m 1262 1216 l 1093 1216 l 808 137 b 780 8 796 88 787 43 l 777 8 b 739 129 766 45 752 87 l 561 608 l 263 483 l 302 368 l 423 418 l 683 -216 l 868 -216 l 1262 1216 "}}}
